<svg width="60" height="60" viewBox="0 0 60 60" fill="none" xmlns="http://www.w3.org/2000/svg">
<circle cx="30" cy="29.0249" r="18" fill="#E0FCF9"/>
<path d="M48 31.7251C48 41.6662 39.9411 49.7251 30 49.7251C20.0589 49.7251 12 41.6662 12 31.7251C12 21.784 20.0589 13.7251 30 13.7251C39.9411 13.7251 48 21.784 48 31.7251ZM15.6107 31.7251C15.6107 39.6721 22.053 46.1144 30 46.1144C37.947 46.1144 44.3893 39.6721 44.3893 31.7251C44.3893 23.7781 37.947 17.3358 30 17.3358C22.053 17.3358 15.6107 23.7781 15.6107 31.7251Z" fill="black" fill-opacity="0.1"/>
<path d="M48 29.0249C48 38.966 39.9411 47.0249 30 47.0249C20.0589 47.0249 12 38.966 12 29.0249C12 19.0838 20.0589 11.0249 30 11.0249C39.9411 11.0249 48 19.0838 48 29.0249ZM15.6107 29.0249C15.6107 36.9719 22.053 43.4142 30 43.4142C37.947 43.4142 44.3893 36.9719 44.3893 29.0249C44.3893 21.0779 37.947 14.6356 30 14.6356C22.053 14.6356 15.6107 21.0779 15.6107 29.0249Z" fill="#2CC0BE"/>
<path fill-rule="evenodd" clip-rule="evenodd" d="M29.1002 20.025C29.1002 19.5279 29.5032 19.125 30.0002 19.125C30.4973 19.125 30.9002 19.5279 30.9002 20.025V29.2658C31.4383 29.577 31.8003 30.1587 31.8003 30.825C31.8003 31.8191 30.9944 32.625 30.0003 32.625C29.9753 32.625 29.9505 32.6245 29.9257 32.6235L23.5194 36.3222C22.8737 36.695 22.048 36.4738 21.6752 35.8281C21.3024 35.1824 21.5237 34.3567 22.1694 33.9839L28.2327 30.4833C28.3327 29.9631 28.6566 29.5225 29.1002 29.2658V20.025Z" fill="#A0DBDA"/>
<path fill-rule="evenodd" clip-rule="evenodd" d="M29.1002 19.1251C29.1002 18.628 29.5032 18.2251 30.0002 18.2251C30.4973 18.2251 30.9002 18.628 30.9002 19.1251V28.3659C31.4383 28.6771 31.8003 29.2588 31.8003 29.9251C31.8003 30.9192 30.9944 31.7251 30.0003 31.7251C29.9753 31.7251 29.9505 31.7246 29.9258 31.7236L23.5194 35.4223C22.8737 35.7951 22.048 35.5739 21.6752 34.9282C21.3024 34.2825 21.5237 33.4568 22.1694 33.084L28.2327 29.5834C28.3327 29.0632 28.6566 28.6226 29.1002 28.3659V19.1251Z" fill="#434547"/>
<path d="M32.7002 32.6249V20.0249C33.5283 20.0656 42.4066 23.1749 39.9002 32.6249C37.3938 42.0749 25.6144 41.2235 23.7002 38.0249L32.7002 32.6249Z" fill="#A0DBDA"/>
</svg>
