<svg width="48" height="53" viewBox="0 0 48 53" fill="none" xmlns="http://www.w3.org/2000/svg">
<circle cx="24" cy="24.7002" r="24" fill="#E0FCF9"/>
<path d="M48 28.2998C48 41.5546 37.2548 52.2998 24 52.2998C10.7452 52.2998 0 41.5546 0 28.2998C0 15.045 10.7452 4.2998 24 4.2998C37.2548 4.2998 48 15.045 48 28.2998ZM4.81428 28.2998C4.81428 38.8958 13.404 47.4855 24 47.4855C34.596 47.4855 43.1857 38.8958 43.1857 28.2998C43.1857 17.7038 34.596 9.11409 24 9.11409C13.404 9.11409 4.81428 17.7038 4.81428 28.2998Z" fill="black" fill-opacity="0.1"/>
<path d="M48 24.7002C48 37.955 37.2548 48.7002 24 48.7002C10.7452 48.7002 0 37.955 0 24.7002C0 11.4454 10.7452 0.700195 24 0.700195C37.2548 0.700195 48 11.4454 48 24.7002ZM4.81428 24.7002C4.81428 35.2962 13.404 43.8859 24 43.8859C34.596 43.8859 43.1857 35.2962 43.1857 24.7002C43.1857 14.1042 34.596 5.51448 24 5.51448C13.404 5.51448 4.81428 14.1042 4.81428 24.7002Z" fill="#2CC0BE"/>
<path fill-rule="evenodd" clip-rule="evenodd" d="M22.8 12.7C22.8 12.0373 23.3373 11.5 24 11.5C24.6627 11.5 25.2 12.0373 25.2 12.7V25.021C25.9174 25.436 26.4001 26.2116 26.4001 27.1C26.4001 28.4255 25.3256 29.5 24.0001 29.5C23.9668 29.5 23.9337 29.4993 23.9007 29.498L15.3589 34.4296C14.4979 34.9267 13.3971 34.6317 12.9 33.7708C12.403 32.9098 12.6979 31.809 13.5589 31.3119L21.6433 26.6444C21.7766 25.9508 22.2085 25.3633 22.8 25.0211V12.7Z" fill="#A0DBDA"/>
<path fill-rule="evenodd" clip-rule="evenodd" d="M22.8 11.4998C22.8 10.8371 23.3373 10.2998 24 10.2998C24.6627 10.2998 25.2 10.8371 25.2 11.4998V23.8208C25.9174 24.2358 26.4001 25.0114 26.4001 25.8998C26.4001 27.2253 25.3256 28.2998 24.0001 28.2998C23.9668 28.2998 23.9337 28.2991 23.9007 28.2978L15.3589 33.2294C14.4979 33.7265 13.3971 33.4315 12.9 32.5706C12.403 31.7097 12.6979 30.6088 13.5589 30.1117L21.6433 25.4442C21.7766 24.7506 22.2085 24.1631 22.8 23.8209V11.4998Z" fill="#434547"/>
<path d="M27.6 29.5002V12.7002C28.7041 12.7544 40.5418 16.9002 37.2 29.5002C33.8582 42.1002 18.1522 40.965 15.6 36.7002L27.6 29.5002Z" fill="#A0DBDA"/>
</svg>
