<svg width="80" height="80" viewBox="0 0 80 80" fill="none" xmlns="http://www.w3.org/2000/svg">
<rect y="0.200684" width="79.7986" height="79.6122" rx="39.8061" fill="#9595AD"/>
<path d="M10.1883 66.2019C-4.81166 16.2019 27.6883 -0.298142 59.1882 5.20044C59.1882 5.20044 38.1884 -8.29834 15.6882 8.20044C-6.81203 24.6992 -1.81166 55.7019 10.1883 66.2019Z" fill="white" fill-opacity="0.13"/>
<path d="M13.7981 69.8117C63.7981 84.8117 80.2981 52.3117 74.7996 20.8118C74.7996 20.8118 88.2983 41.8116 71.7996 64.3118C55.3008 86.812 24.2981 81.8117 13.7981 69.8117Z" fill="black" fill-opacity="0.14"/>
<path fill-rule="evenodd" clip-rule="evenodd" d="M54.0037 42.6335C54.5999 42.9502 55.0598 43.4502 55.3834 43.9502C56.0136 44.9835 55.9625 46.2502 55.3493 47.3668L54.157 49.3668C53.5268 50.4335 52.3516 51.1002 51.1423 51.1002C50.5461 51.1002 49.8819 50.9335 49.3368 50.6002C48.894 50.3168 48.383 50.2168 47.8379 50.2168C46.1517 50.2168 44.738 51.6002 44.6869 53.2502C44.6869 55.1668 43.1199 56.6668 41.1611 56.6668H38.8447C36.8689 56.6668 35.3019 55.1668 35.3019 53.2502C35.2679 51.6002 33.8542 50.2168 32.1679 50.2168C31.6058 50.2168 31.0949 50.3168 30.6691 50.6002C30.124 50.9335 29.4427 51.1002 28.8636 51.1002C27.6372 51.1002 26.462 50.4335 25.8318 49.3668L24.6565 47.3668C24.0263 46.2835 23.9923 44.9835 24.6225 43.9502C24.895 43.4502 25.406 42.9502 25.9851 42.6335C26.462 42.4002 26.7686 42.0168 27.0581 41.5668C27.9098 40.1335 27.3988 38.2502 25.951 37.4002C24.2648 36.4502 23.7197 34.3335 24.6906 32.6835L25.8318 30.7168C26.8197 29.0668 28.9317 28.4835 30.635 29.4502C32.1168 30.2502 34.0415 29.7168 34.9102 28.3002C35.1827 27.8335 35.336 27.3335 35.3019 26.8335C35.2679 26.1835 35.4552 25.5668 35.7788 25.0668C36.409 24.0335 37.5502 23.3668 38.7936 23.3335H41.1952C42.4556 23.3335 43.5968 24.0335 44.227 25.0668C44.5336 25.5668 44.738 26.1835 44.6869 26.8335C44.6528 27.3335 44.8061 27.8335 45.0787 28.3002C45.9473 29.7168 47.872 30.2502 49.3709 29.4502C51.0571 28.4835 53.1862 29.0668 54.157 30.7168L55.2982 32.6835C56.2861 34.3335 55.7411 36.4502 54.0378 37.4002C52.59 38.2502 52.0791 40.1335 52.9477 41.5668C53.2202 42.0168 53.5268 42.4002 54.0037 42.6335ZM35.1827 40.0168C35.1827 42.6335 37.3458 44.7168 40.02 44.7168C42.6941 44.7168 44.8061 42.6335 44.8061 40.0168C44.8061 37.4002 42.6941 35.3002 40.02 35.3002C37.3458 35.3002 35.1827 37.4002 35.1827 40.0168Z" fill="white"/>
</svg>
