<svg width="80" height="80" viewBox="0 0 80 80" fill="none" xmlns="http://www.w3.org/2000/svg">
<rect y="0.200195" width="79.7986" height="79.6122" rx="39.8061" fill="#FFC284"/>
<path d="M10.1883 66.2019C-4.81166 16.2019 27.6883 -0.298142 59.1882 5.20044C59.1882 5.20044 38.1884 -8.29834 15.6882 8.20044C-6.81203 24.6992 -1.81166 55.7019 10.1883 66.2019Z" fill="white" fill-opacity="0.26"/>
<path d="M13.7981 69.8117C63.7981 84.8117 80.2981 52.3117 74.7996 20.8118C74.7996 20.8118 88.2983 41.8116 71.7996 64.3118C55.3008 86.812 24.2981 81.8117 13.7981 69.8117Z" fill="black" fill-opacity="0.06"/>
<path fill-rule="evenodd" clip-rule="evenodd" d="M54.0037 42.634C54.5999 42.9507 55.0598 43.4507 55.3834 43.9507C56.0136 44.984 55.9625 46.2507 55.3493 47.3673L54.157 49.3673C53.5268 50.434 52.3516 51.1007 51.1423 51.1007C50.5461 51.1007 49.8819 50.934 49.3368 50.6007C48.894 50.3173 48.383 50.2173 47.8379 50.2173C46.1517 50.2173 44.738 51.6007 44.6869 53.2507C44.6869 55.1673 43.1199 56.6673 41.1611 56.6673H38.8447C36.8689 56.6673 35.3019 55.1673 35.3019 53.2507C35.2679 51.6007 33.8542 50.2173 32.1679 50.2173C31.6058 50.2173 31.0949 50.3173 30.6691 50.6007C30.124 50.934 29.4427 51.1007 28.8636 51.1007C27.6372 51.1007 26.462 50.434 25.8318 49.3673L24.6565 47.3673C24.0263 46.284 23.9923 44.984 24.6225 43.9507C24.895 43.4507 25.406 42.9507 25.9851 42.634C26.462 42.4007 26.7686 42.0173 27.0581 41.5673C27.9098 40.134 27.3988 38.2507 25.951 37.4007C24.2648 36.4507 23.7197 34.334 24.6906 32.684L25.8318 30.7173C26.8197 29.0673 28.9317 28.484 30.635 29.4507C32.1168 30.2507 34.0415 29.7173 34.9102 28.3007C35.1827 27.834 35.336 27.334 35.3019 26.834C35.2679 26.184 35.4552 25.5673 35.7788 25.0673C36.409 24.034 37.5502 23.3673 38.7936 23.334H41.1952C42.4556 23.334 43.5968 24.034 44.227 25.0673C44.5336 25.5673 44.738 26.184 44.6869 26.834C44.6528 27.334 44.8061 27.834 45.0787 28.3007C45.9473 29.7173 47.872 30.2507 49.3709 29.4507C51.0571 28.484 53.1862 29.0673 54.157 30.7173L55.2982 32.684C56.2861 34.334 55.7411 36.4507 54.0378 37.4007C52.59 38.2507 52.0791 40.134 52.9477 41.5673C53.2202 42.0173 53.5268 42.4007 54.0037 42.634ZM35.1827 40.0173C35.1827 42.634 37.3458 44.7173 40.02 44.7173C42.6941 44.7173 44.8061 42.634 44.8061 40.0173C44.8061 37.4007 42.6941 35.3007 40.02 35.3007C37.3458 35.3007 35.1827 37.4007 35.1827 40.0173Z" fill="#7C2121"/>
</svg>
