<svg width="80" height="80" viewBox="0 0 80 80" fill="none" xmlns="http://www.w3.org/2000/svg">
<path fill-rule="evenodd" clip-rule="evenodd" d="M40.7597 16C41.8035 16 42.6718 16.8027 42.7536 17.8433L43.038 21.4619C45.9595 21.937 48.6548 23.0861 50.9592 24.7444L53.7201 22.3859C54.5137 21.7079 55.6953 21.7543 56.4333 22.4924L57.5078 23.5668C58.2458 24.3048 58.2922 25.4864 57.6142 26.28L55.2557 29.0409C56.914 31.3453 58.063 34.0406 58.5382 36.9621L62.1567 37.2465C63.1973 37.3282 64 38.1965 64 39.2403V40.7597C64 41.8035 63.1973 42.6718 62.1567 42.7536L58.5382 43.038C58.0631 45.9595 56.914 48.6548 55.2557 50.9592L57.6142 53.72C58.2922 54.5137 58.2458 55.6952 57.5078 56.4333L56.4334 57.5077C55.6953 58.2458 54.5137 58.2922 53.7201 57.6142L50.9593 55.2557C48.6757 56.899 46.0083 58.0423 43.1172 58.5252L42.7773 62.185C42.6817 63.2135 41.8188 64 40.7859 64H39.2141C38.1812 64 37.3182 63.2135 37.2227 62.185L36.8828 58.5252C34.0193 58.0469 31.3751 56.9208 29.1062 55.3026L26.2767 57.6511C25.4819 58.3108 24.3155 58.2567 23.5851 57.5264L22.4737 56.415C21.7434 55.6846 21.6893 54.5182 22.349 53.7234L24.6975 50.8939C23.0793 48.6249 21.9532 45.9808 21.4749 43.1173L17.815 42.7773C16.7865 42.6818 16 41.8188 16 40.7859V39.2142C16 38.1813 16.7865 37.3183 17.815 37.2227L21.4749 36.8828C21.9532 34.0193 23.0793 31.3751 24.6976 29.1062L22.349 26.2766C21.6893 25.4819 21.7434 24.3154 22.4738 23.5851L23.5851 22.4737C24.3155 21.7433 25.4819 21.6893 26.2767 22.349L29.1062 24.6975C31.3961 23.0645 34.0681 21.9325 36.962 21.4619L37.2464 17.8433C37.3282 16.8027 38.1965 16 39.2403 16H40.7597Z" fill="black"/>
<path d="M40.0001 26.3912C40.0001 25.839 39.5518 25.3877 39.0008 25.4254C37.4243 25.5335 35.8735 25.8969 34.4095 26.5033C32.6371 27.2374 31.0267 28.3135 29.6701 29.67C28.3136 31.0266 27.2375 32.637 26.5034 34.4094C25.897 35.8734 25.5337 37.4242 25.4256 39.0007C25.3878 39.5517 25.8391 39.9999 26.3914 39.9999H28.8624C29.4146 39.9999 29.8573 39.5511 29.9116 39.0015C30.0095 38.0127 30.2524 37.0418 30.634 36.1204C31.1435 34.8904 31.8903 33.7729 32.8316 32.8315C33.773 31.8901 34.8906 31.1434 36.1205 30.6339C37.0419 30.2523 38.0128 30.0094 39.0017 29.9115C39.5513 29.8571 40.0001 29.4145 40.0001 28.8622V26.3912Z" fill="white"/>
</svg>
