<svg width="80" height="80" viewBox="0 0 80 80" fill="none" xmlns="http://www.w3.org/2000/svg">
<path d="M25 58.9142H27.1788C27.7311 58.9142 28.1788 58.4664 28.1788 57.9142V21.2117V20.1538C28.1788 19.3947 28.9913 18.9124 29.6577 19.2759L31.7701 20.4281L33.4024 21.2117L60.3274 31.7893C61.1676 32.1194 61.1749 33.3058 60.3388 33.6463L34.0253 44.3596C33.6487 44.5129 33.4024 44.8791 33.4024 45.2858V57.9142C33.4024 58.4664 33.8501 58.9142 34.4024 58.9142H36.5813C37.1335 58.9142 37.5813 59.3619 37.5813 59.9142V62.0001C37.5813 62.5524 37.1335 63.0001 36.5813 63.0001H25C24.4477 63.0001 24 62.5524 24 62.0001V59.9142C24 59.3619 24.4477 58.9142 25 58.9142Z" fill="#FF324B"/>
<path d="M28.1788 21.2116V18C28.1788 17.4477 28.6266 17 29.1788 17H32.4024C32.9547 17 33.4024 17.4477 33.4024 18V21.2116H28.1788Z" fill="black"/>
<path d="M28.1788 57.9137V45.6128C28.1788 45.0605 28.6266 44.6128 29.1788 44.6128L32.4024 44.6128C32.9547 44.6128 33.4024 45.0605 33.4024 45.6128V57.9137C33.4024 58.466 33.8501 58.9137 34.4024 58.9137H36.5813C37.1335 58.9137 37.5813 59.3615 37.5813 59.9137V61.9997C37.5813 62.552 37.1335 62.9997 36.5813 62.9997H25C24.4477 62.9997 24 62.552 24 61.9997V59.9137C24 59.3615 24.4477 58.9137 25 58.9137H27.1788C27.7311 58.9137 28.1788 58.466 28.1788 57.9137Z" fill="black"/>
</svg>
