<svg width="60" height="60" viewBox="0 0 60 60" fill="none" xmlns="http://www.w3.org/2000/svg">
<g clip-path="url(#clip0_235_18578)">
<path fill-rule="evenodd" clip-rule="evenodd" d="M41.9947 27.0117C42.5072 27.0117 42.9876 27.0117 43.5 27.0117C43.5 30.6483 43.5 34.2849 43.5 37.8898C42.9876 37.8898 42.5072 37.8898 41.9947 37.8898C41.9947 37.7949 41.9947 37.7317 41.9947 37.6368C41.9947 34.1584 41.9947 30.7115 41.9947 27.2331C41.9627 27.1698 41.9947 27.075 41.9947 27.0117Z" fill="black"/>
<path fill-rule="evenodd" clip-rule="evenodd" d="M27.5176 12.75C27.5176 13.256 27.5176 13.7303 27.5176 14.2363C26.4927 14.2363 25.4678 14.2363 24.4429 14.2363C24.4429 13.7303 24.4429 13.256 24.4429 12.75C25.4678 12.75 26.4927 12.75 27.5176 12.75Z" fill="black"/>
<path fill-rule="evenodd" clip-rule="evenodd" d="M40.4253 42.3804C40.4253 42.4436 40.4573 42.5069 40.4573 42.5701C40.4573 44.088 40.4573 45.5742 40.4573 47.0921C40.4573 47.1553 40.4573 47.187 40.4573 47.2502C35.1406 47.2502 29.8239 47.2502 24.5071 47.2502C24.5071 47.1553 24.5071 47.0605 24.5071 46.9656C24.5071 45.5426 24.5071 44.088 24.5071 42.665C24.5071 42.5701 24.5071 42.4752 24.4751 42.3804C24.9876 42.3804 25.5 42.3804 26.0445 42.3804C26.0445 43.5188 26.0445 44.6256 26.0445 45.764C30.2402 45.764 34.4039 45.764 38.5676 45.764C38.5676 44.6256 38.5676 43.5188 38.5676 42.3804C39.1762 42.3804 39.8167 42.3804 40.4253 42.3804Z" fill="black"/>
<path fill-rule="evenodd" clip-rule="evenodd" d="M21.4326 28.5296C21.913 28.5296 22.4255 28.5296 22.938 28.5296C22.938 23.7547 22.938 19.0113 22.938 14.2363C23.4504 14.2363 23.9629 14.2363 24.4433 14.2363C24.4433 14.3312 24.4753 14.4261 24.4753 14.5209C24.4753 21.0984 24.4753 27.6758 24.4753 34.2533C24.4753 34.3482 24.4753 34.4114 24.4753 34.5063C23.9629 34.5063 23.4504 34.5063 22.938 34.5063C22.938 32.9884 22.938 31.5338 22.938 30.0159C22.4255 30.0159 21.9451 30.0159 21.4326 30.0159C21.4326 29.5099 21.4326 29.004 21.4326 28.5296Z" fill="black"/>
<path fill-rule="evenodd" clip-rule="evenodd" d="M18.0053 31.5021C17.5249 31.5021 17.0125 31.5021 16.5 31.5021C16.5 30.0158 16.5 28.5296 16.5 27.0117C18.1335 27.0117 19.7669 27.0117 21.4324 27.0117C21.4324 27.5177 21.4324 28.0236 21.4324 28.5296C20.2794 28.5296 19.1584 28.5296 18.0053 28.5296C18.0053 28.7193 18.0053 28.9091 18.0053 29.0672C18.0053 29.8894 18.0053 30.6799 18.0053 31.5021Z" fill="black"/>
<path fill-rule="evenodd" clip-rule="evenodd" d="M41.9949 37.89C41.9949 39.2814 41.9949 40.7044 41.9949 42.0958C41.9949 42.1907 41.9949 42.2855 41.9949 42.3804C41.4504 42.3804 40.9379 42.3804 40.4575 42.3804C40.4575 40.8941 40.4575 39.3763 40.4575 37.8584C41.002 37.89 41.4824 37.89 41.9949 37.89Z" fill="black"/>
<path fill-rule="evenodd" clip-rule="evenodd" d="M21.4325 36.4037C20.7919 36.4037 20.1833 36.4037 19.5428 36.4037C19.5428 36.3721 19.5107 36.3405 19.5107 36.3089C19.5107 35.2653 19.5107 34.1902 19.5107 33.1466C19.5107 33.115 19.5107 33.0834 19.5107 33.0518C20.1513 33.0518 20.7599 33.0518 21.4004 33.0518C21.4325 34.1585 21.4325 35.2969 21.4325 36.4037Z" fill="black"/>
<path fill-rule="evenodd" clip-rule="evenodd" d="M22.938 39.4078C22.4575 39.4078 21.9451 39.4078 21.4326 39.4078C21.4326 38.3959 21.4326 37.384 21.4326 36.3721C21.9451 36.3721 22.4255 36.3721 22.938 36.3721C22.938 37.4156 22.938 38.4275 22.938 39.4078Z" fill="black"/>
<path fill-rule="evenodd" clip-rule="evenodd" d="M24.4428 42.3802C23.9624 42.3802 23.45 42.3802 22.9375 42.3802C22.9375 41.3683 22.9375 40.388 22.9375 39.4077C23.45 39.4077 23.9624 39.4077 24.4749 39.4077C24.4749 40.135 24.4749 40.8623 24.4749 41.5897C24.4749 41.8743 24.4428 42.1272 24.4428 42.3802Z" fill="black"/>
<path fill-rule="evenodd" clip-rule="evenodd" d="M19.5425 33.0197C19.0301 33.0197 18.5176 33.0197 17.9731 33.0197C17.9731 32.4821 17.9731 31.9762 17.9731 31.4702C18.4856 31.4702 18.9981 31.4702 19.5425 31.4702C19.5425 32.0394 19.5425 32.5454 19.5425 33.0197Z" fill="black"/>
<path fill-rule="evenodd" clip-rule="evenodd" d="M27.5176 14.2363C28.03 14.2363 28.5105 14.2363 29.0549 14.2363C29.0549 16.3866 29.0549 18.4737 29.0549 20.624C30.208 20.624 31.329 20.624 32.482 20.624C32.482 21.1616 32.482 21.6676 32.482 22.1735C31.329 22.1735 30.208 22.1735 29.0229 22.1735C29.0229 24.2922 29.0229 26.4109 29.0229 28.5296C28.5105 28.5296 28.03 28.5296 27.5176 28.5296C27.5176 23.723 27.5176 18.9797 27.5176 14.2363Z" fill="black"/>
<path fill-rule="evenodd" clip-rule="evenodd" d="M32.45 22.142C32.5461 22.142 32.6101 22.1104 32.6742 22.1104C34.0194 22.1104 35.3966 22.1104 36.7418 22.1104C36.8059 22.1104 36.902 22.1104 36.998 22.1104C36.998 22.6163 36.998 23.1223 36.998 23.5966C35.9731 23.5966 34.9802 23.5966 33.9233 23.5966C33.9233 25.241 33.9233 26.8537 33.9233 28.4664C33.4109 28.4664 32.9304 28.4664 32.418 28.4664C32.482 26.3794 32.482 24.2607 32.45 22.142Z" fill="black"/>
<path fill-rule="evenodd" clip-rule="evenodd" d="M37.0303 23.6279C38.1513 23.6279 39.2723 23.6279 40.4253 23.6279C40.4253 24.1339 40.4253 24.6082 40.4253 25.1142C39.7847 25.1142 39.1762 25.1142 38.5356 25.1142C38.5356 26.7902 38.5356 28.3713 38.5356 29.984C38.0232 29.984 37.5427 29.984 37.0303 29.984C37.0303 27.8653 37.0303 25.7466 37.0303 23.6279Z" fill="black"/>
<path fill-rule="evenodd" clip-rule="evenodd" d="M40.4253 25.1143C40.9377 25.1143 41.4502 25.1143 41.9947 25.1143C41.9947 25.7467 41.9947 26.3792 41.9947 26.98C41.4822 26.98 40.9698 26.98 40.4253 26.98C40.4253 26.3475 40.4253 25.7467 40.4253 25.1143Z" fill="black"/>
<path fill-rule="evenodd" clip-rule="evenodd" d="M40.4251 25.1144C40.4251 25.7469 40.4251 26.3477 40.4251 26.9801C40.9696 26.9801 41.482 26.9801 41.9945 26.9801C41.9945 27.075 41.9945 27.1699 41.9945 27.2331C41.9945 30.7116 41.9945 34.1584 41.9945 37.6369C41.9945 37.7317 41.9945 37.795 41.9945 37.8899C41.482 37.8899 41.0016 37.8899 40.4251 37.8899C40.4251 39.4077 40.4251 40.894 40.4251 42.4119C39.8166 42.4119 39.176 42.4119 38.5354 42.4119C38.5354 43.5503 38.5354 44.657 38.5354 45.7955C34.3397 45.7955 30.176 45.7955 26.0123 45.7955C26.0123 44.6887 26.0123 43.5819 26.0123 42.4119C25.4678 42.4119 24.9554 42.4119 24.4429 42.4119C24.4429 42.1589 24.4749 41.8743 24.4749 41.6213C24.4749 40.894 24.4749 40.1667 24.4749 39.4394C23.9625 39.4394 23.45 39.4394 22.9376 39.4394C22.9376 38.4274 22.9376 37.4471 22.9376 36.4036C22.4251 36.4036 21.9447 36.4036 21.4322 36.4036C21.4322 35.2968 21.4322 34.19 21.4322 33.0516C20.7916 33.0516 20.1511 33.0516 19.5425 33.0516C19.5425 32.5457 19.5425 32.0397 19.5425 31.5021C18.9981 31.5021 18.4856 31.5021 17.9731 31.5021C17.9731 30.68 17.9731 29.8894 17.9731 29.0672C17.9731 28.9091 17.9731 28.7194 17.9731 28.5296C19.1262 28.5296 20.2792 28.5296 21.4002 28.5296C21.4002 29.004 21.4002 29.5099 21.4002 30.0159C21.9126 30.0159 22.3931 30.0159 22.9055 30.0159C22.9055 31.5338 22.9055 33.02 22.9055 34.5063C23.418 34.5063 23.9304 34.5063 24.4429 34.5063C24.4429 34.4114 24.4429 34.3482 24.4429 34.2533C24.4429 27.6758 24.4429 21.0984 24.4429 14.5209C24.4429 14.4261 24.4109 14.3312 24.4109 14.2363C25.4358 14.2363 26.4607 14.2363 27.4856 14.2363C27.4856 18.9797 27.4856 23.723 27.4856 28.498C27.9981 28.498 28.4785 28.498 28.9909 28.498C28.9909 26.3793 28.9909 24.2606 28.9909 22.1419C30.144 22.1419 31.297 22.1419 32.45 22.1419C32.45 24.2606 32.45 26.3793 32.45 28.498C32.9625 28.498 33.4429 28.498 33.9554 28.498C33.9554 26.8853 33.9554 25.2725 33.9554 23.6282C34.9803 23.6282 36.0052 23.6282 37.0301 23.6282C37.0301 25.7469 37.0301 27.8656 37.0301 29.9843C37.5105 29.9843 38.023 29.9843 38.5354 29.9843C38.5354 28.3715 38.5354 26.7588 38.5354 25.1144C39.176 25.1144 39.8166 25.1144 40.4251 25.1144Z" fill="white"/>
</g>
<defs>
<clipPath id="clip0_235_18578">
<rect width="27" height="34.5" fill="white" transform="translate(16.5 12.75)"/>
</clipPath>
</defs>
</svg>
