<svg width="80" height="80" viewBox="0 0 80 80" fill="none" xmlns="http://www.w3.org/2000/svg">

<circle cx="33.5" cy="24.5" r="13.5" fill="#FDE180"/>
<circle cx="33.5" cy="24.5" r="13.5" fill="#2CC0BE"/>
<g clip-path="url(#clip0_258_19075)">
<path fill-rule="evenodd" clip-rule="evenodd" d="M55.9929 42.0156C56.6762 42.0156 57.3167 42.0156 58 42.0156C58 46.8644 58 51.7132 58 56.5198C57.3167 56.5198 56.6762 56.5198 55.9929 56.5198C55.9929 56.3933 55.9929 56.3089 55.9929 56.1824C55.9929 51.5445 55.9929 46.9487 55.9929 42.3108C55.9502 42.2264 55.9929 42.1 55.9929 42.0156Z" fill="black"/>
<path fill-rule="evenodd" clip-rule="evenodd" d="M36.6904 23C36.6904 23.6746 36.6904 24.3071 36.6904 24.9817C35.3238 24.9817 33.9573 24.9817 32.5907 24.9817C32.5907 24.3071 32.5907 23.6746 32.5907 23C33.9573 23 35.3238 23 36.6904 23Z" fill="black"/>
<path fill-rule="evenodd" clip-rule="evenodd" d="M53.9004 62.5068C53.9004 62.5912 53.9431 62.6755 53.9431 62.7598C53.9431 64.7836 53.9431 66.7653 53.9431 68.7891C53.9431 68.8735 53.9431 68.9156 53.9431 69C46.8541 69 39.7651 69 32.6762 69C32.6762 68.8735 32.6762 68.747 32.6762 68.6205C32.6762 66.7232 32.6762 64.7836 32.6762 62.8863C32.6762 62.7598 32.6762 62.6333 32.6335 62.5068C33.3167 62.5068 34 62.5068 34.726 62.5068C34.726 64.0247 34.726 65.5004 34.726 67.0183C40.3203 67.0183 45.8719 67.0183 51.4235 67.0183C51.4235 65.5004 51.4235 64.0247 51.4235 62.5068C52.2349 62.5068 53.089 62.5068 53.9004 62.5068Z" fill="black"/>
<path fill-rule="evenodd" clip-rule="evenodd" d="M28.5765 44.0392C29.2171 44.0392 29.9004 44.0392 30.5836 44.0392C30.5836 37.6726 30.5836 31.3481 30.5836 24.9814C31.2669 24.9814 31.9502 24.9814 32.5907 24.9814C32.5907 25.1079 32.6335 25.2344 32.6335 25.3609C32.6335 34.1308 32.6335 42.9008 32.6335 51.6707C32.6335 51.7972 32.6335 51.8815 32.6335 52.008C31.9502 52.008 31.2669 52.008 30.5836 52.008C30.5836 49.9842 30.5836 48.0447 30.5836 46.0209C29.9004 46.0209 29.2598 46.0209 28.5765 46.0209C28.5765 45.3462 28.5765 44.6716 28.5765 44.0392Z" fill="black"/>
<path fill-rule="evenodd" clip-rule="evenodd" d="M24.0071 48.0028C23.3665 48.0028 22.6833 48.0028 22 48.0028C22 46.0211 22 44.0395 22 42.0156C24.1779 42.0156 26.3559 42.0156 28.5765 42.0156C28.5765 42.6902 28.5765 43.3648 28.5765 44.0395C27.0391 44.0395 25.5445 44.0395 24.0071 44.0395C24.0071 44.2924 24.0071 44.5454 24.0071 44.7562C24.0071 45.8525 24.0071 46.9066 24.0071 48.0028Z" fill="black"/>
<path fill-rule="evenodd" clip-rule="evenodd" d="M55.9929 56.5197C55.9929 58.3749 55.9929 60.2722 55.9929 62.1274C55.9929 62.2539 55.9929 62.3804 55.9929 62.5069C55.2669 62.5069 54.5836 62.5069 53.9431 62.5069C53.9431 60.5252 53.9431 58.5014 53.9431 56.4775C54.669 56.5197 55.3096 56.5197 55.9929 56.5197Z" fill="black"/>
<path fill-rule="evenodd" clip-rule="evenodd" d="M28.5765 54.5381C27.7224 54.5381 26.911 54.5381 26.0569 54.5381C26.0569 54.496 26.0142 54.4538 26.0142 54.4117C26.0142 53.0203 26.0142 51.5867 26.0142 50.1953C26.0142 50.1532 26.0142 50.111 26.0142 50.0688C26.8683 50.0688 27.6797 50.0688 28.5338 50.0688C28.5765 51.5446 28.5765 53.0624 28.5765 54.5381Z" fill="black"/>
<path fill-rule="evenodd" clip-rule="evenodd" d="M30.5836 58.5438C29.9431 58.5438 29.2598 58.5438 28.5765 58.5438C28.5765 57.1945 28.5765 55.8453 28.5765 54.4961C29.2598 54.4961 29.9004 54.4961 30.5836 54.4961C30.5836 55.8875 30.5836 57.2367 30.5836 58.5438Z" fill="black"/>
<path fill-rule="evenodd" clip-rule="evenodd" d="M32.5908 62.5068C31.9502 62.5068 31.2669 62.5068 30.5836 62.5068C30.5836 61.1576 30.5836 59.8505 30.5836 58.5435C31.2669 58.5435 31.9502 58.5435 32.6335 58.5435C32.6335 59.5132 32.6335 60.483 32.6335 61.4527C32.6335 61.8322 32.5908 62.1695 32.5908 62.5068Z" fill="black"/>
<path fill-rule="evenodd" clip-rule="evenodd" d="M26.0569 50.0264C25.3737 50.0264 24.6904 50.0264 23.9644 50.0264C23.9644 49.3097 23.9644 48.6351 23.9644 47.9604C24.6477 47.9604 25.331 47.9604 26.0569 47.9604C26.0569 48.7194 26.0569 49.394 26.0569 50.0264Z" fill="black"/>
<path fill-rule="evenodd" clip-rule="evenodd" d="M36.6904 24.9814C37.3737 24.9814 38.0142 24.9814 38.7402 24.9814C38.7402 27.8485 38.7402 30.6313 38.7402 33.4984C40.2776 33.4984 41.7722 33.4984 43.3096 33.4984C43.3096 34.2152 43.3096 34.8898 43.3096 35.5644C41.7722 35.5644 40.2776 35.5644 38.6975 35.5644C38.6975 38.3893 38.6975 41.2143 38.6975 44.0392C38.0142 44.0392 37.3737 44.0392 36.6904 44.0392C36.6904 37.6304 36.6904 31.3059 36.6904 24.9814Z" fill="black"/>
<path fill-rule="evenodd" clip-rule="evenodd" d="M43.2669 35.5226C43.395 35.5226 43.4804 35.4805 43.5658 35.4805C45.3594 35.4805 47.1957 35.4805 48.9893 35.4805C49.0747 35.4805 49.2028 35.4805 49.331 35.4805C49.331 36.1551 49.331 36.8297 49.331 37.4621C47.9644 37.4621 46.6406 37.4621 45.2313 37.4621C45.2313 39.6546 45.2313 41.8049 45.2313 43.9553C44.548 43.9553 43.9075 43.9553 43.2242 43.9553C43.3096 41.1725 43.3096 38.3476 43.2669 35.5226Z" fill="black"/>
<path fill-rule="evenodd" clip-rule="evenodd" d="M49.3737 37.5039C50.8683 37.5039 52.363 37.5039 53.9004 37.5039C53.9004 38.1785 53.9004 38.811 53.9004 39.4856C53.0463 39.4856 52.2349 39.4856 51.3808 39.4856C51.3808 41.7202 51.3808 43.8284 51.3808 45.9787C50.6975 45.9787 50.0569 45.9787 49.3737 45.9787C49.3737 43.1538 49.3737 40.3288 49.3737 37.5039Z" fill="black"/>
<path fill-rule="evenodd" clip-rule="evenodd" d="M53.9004 39.4858C54.5836 39.4858 55.2669 39.4858 55.9929 39.4858C55.9929 40.3291 55.9929 41.1724 55.9929 41.9735C55.3096 41.9735 54.6263 41.9735 53.9004 41.9735C53.9004 41.1302 53.9004 40.3291 53.9004 39.4858Z" fill="black"/>
<path fill-rule="evenodd" clip-rule="evenodd" d="M53.9004 39.4856C53.9004 40.3288 53.9004 41.1299 53.9004 41.9732C54.6263 41.9732 55.3096 41.9732 55.9929 41.9732C55.9929 42.0997 55.9929 42.2262 55.9929 42.3105C55.9929 46.9484 55.9929 51.5442 55.9929 56.1822C55.9929 56.3087 55.9929 56.393 55.9929 56.5195C55.3096 56.5195 54.669 56.5195 53.9004 56.5195C53.9004 58.5433 53.9004 60.525 53.9004 62.5488C53.089 62.5488 52.2349 62.5488 51.3808 62.5488C51.3808 64.0667 51.3808 65.5424 51.3808 67.0603C45.7865 67.0603 40.2349 67.0603 34.6833 67.0603C34.6833 65.5846 34.6833 64.1089 34.6833 62.5488C33.9573 62.5488 33.274 62.5488 32.5907 62.5488C32.5907 62.2115 32.6334 61.832 32.6334 61.4947C32.6334 60.525 32.6334 59.5552 32.6334 58.5855C31.9502 58.5855 31.2669 58.5855 30.5836 58.5855C30.5836 57.2363 30.5836 55.9292 30.5836 54.5378C29.9004 54.5378 29.2598 54.5378 28.5765 54.5378C28.5765 53.0621 28.5765 51.5864 28.5765 50.0685C27.7224 50.0685 26.8683 50.0685 26.0569 50.0685C26.0569 49.3939 26.0569 48.7193 26.0569 48.0025C25.331 48.0025 24.6477 48.0025 23.9644 48.0025C23.9644 46.9063 23.9644 45.8522 23.9644 44.756C23.9644 44.5451 23.9644 44.2922 23.9644 44.0392C25.5018 44.0392 27.0391 44.0392 28.5338 44.0392C28.5338 44.6716 28.5338 45.3462 28.5338 46.0209C29.2171 46.0209 29.8576 46.0209 30.5409 46.0209C30.5409 48.0447 30.5409 50.0264 30.5409 52.008C31.2242 52.008 31.9075 52.008 32.5907 52.008C32.5907 51.8815 32.5907 51.7972 32.5907 51.6707C32.5907 42.9008 32.5907 34.1308 32.5907 25.3609C32.5907 25.2344 32.548 25.1079 32.548 24.9814C33.9146 24.9814 35.2811 24.9814 36.6477 24.9814C36.6477 31.3059 36.6477 37.6304 36.6477 43.997C37.331 43.997 37.9715 43.997 38.6548 43.997C38.6548 41.1721 38.6548 38.3472 38.6548 35.5222C40.1922 35.5222 41.7295 35.5222 43.2669 35.5222C43.2669 38.3472 43.2669 41.1721 43.2669 43.997C43.9502 43.997 44.5907 43.997 45.274 43.997C45.274 41.8467 45.274 39.6964 45.274 37.5039C46.6406 37.5039 48.0071 37.5039 49.3737 37.5039C49.3737 40.3288 49.3737 43.1538 49.3737 45.9787C50.0142 45.9787 50.6975 45.9787 51.3808 45.9787C51.3808 43.8284 51.3808 41.6781 51.3808 39.4856C52.2349 39.4856 53.089 39.4856 53.9004 39.4856Z" fill="white"/>
</g>
<defs>
<clipPath id="clip0_258_19075">
<rect width="36" height="46" fill="white" transform="translate(22 23)"/>
</clipPath>
</defs>
</svg>
