<svg width="80" height="80" viewBox="0 0 80 80" fill="none" xmlns="http://www.w3.org/2000/svg">

<circle cx="33.5" cy="24.5" r="13.5" fill="#FDE180"/>
<circle cx="33.5" cy="24.5" r="13.5" fill="#2CC0BE"/>
<g clip-path="url(#clip0_258_19228)">
<path fill-rule="evenodd" clip-rule="evenodd" d="M55.9929 42.0156C56.6762 42.0156 57.3167 42.0156 58 42.0156C58 46.8644 58 51.7132 58 56.5198C57.3167 56.5198 56.6762 56.5198 55.9929 56.5198C55.9929 56.3933 55.9929 56.3089 55.9929 56.1824C55.9929 51.5445 55.9929 46.9487 55.9929 42.3108C55.9502 42.2264 55.9929 42.1 55.9929 42.0156Z" fill="black"/>
<path fill-rule="evenodd" clip-rule="evenodd" d="M36.6904 23C36.6904 23.6746 36.6904 24.3071 36.6904 24.9817C35.3238 24.9817 33.9573 24.9817 32.5907 24.9817C32.5907 24.3071 32.5907 23.6746 32.5907 23C33.9573 23 35.3238 23 36.6904 23Z" fill="black"/>
<path fill-rule="evenodd" clip-rule="evenodd" d="M53.9004 62.5068C53.9004 62.5912 53.9431 62.6755 53.9431 62.7598C53.9431 64.7836 53.9431 66.7653 53.9431 68.7891C53.9431 68.8735 53.9431 68.9156 53.9431 69C46.8541 69 39.7651 69 32.6762 69C32.6762 68.8735 32.6762 68.747 32.6762 68.6205C32.6762 66.7232 32.6762 64.7836 32.6762 62.8863C32.6762 62.7598 32.6762 62.6333 32.6335 62.5068C33.3167 62.5068 34 62.5068 34.726 62.5068C34.726 64.0247 34.726 65.5004 34.726 67.0183C40.3203 67.0183 45.8719 67.0183 51.4235 67.0183C51.4235 65.5004 51.4235 64.0247 51.4235 62.5068C52.2349 62.5068 53.089 62.5068 53.9004 62.5068Z" fill="black"/>
<path fill-rule="evenodd" clip-rule="evenodd" d="M28.5765 44.0394C29.2171 44.0394 29.9004 44.0394 30.5836 44.0394C30.5836 37.6728 30.5836 31.3483 30.5836 24.9817C31.2669 24.9817 31.9502 24.9817 32.5907 24.9817C32.5907 25.1082 32.6335 25.2347 32.6335 25.3612C32.6335 34.1311 32.6335 42.901 32.6335 51.671C32.6335 51.7975 32.6335 51.8818 32.6335 52.0083C31.9502 52.0083 31.2669 52.0083 30.5836 52.0083C30.5836 49.9844 30.5836 48.0449 30.5836 46.0211C29.9004 46.0211 29.2598 46.0211 28.5765 46.0211C28.5765 45.3465 28.5765 44.6719 28.5765 44.0394Z" fill="black"/>
<path fill-rule="evenodd" clip-rule="evenodd" d="M24.0071 48.0028C23.3665 48.0028 22.6833 48.0028 22 48.0028C22 46.0211 22 44.0395 22 42.0156C24.1779 42.0156 26.3559 42.0156 28.5765 42.0156C28.5765 42.6902 28.5765 43.3648 28.5765 44.0395C27.0391 44.0395 25.5445 44.0395 24.0071 44.0395C24.0071 44.2924 24.0071 44.5454 24.0071 44.7562C24.0071 45.8525 24.0071 46.9066 24.0071 48.0028Z" fill="black"/>
<path fill-rule="evenodd" clip-rule="evenodd" d="M55.9929 56.5197C55.9929 58.3749 55.9929 60.2722 55.9929 62.1274C55.9929 62.2539 55.9929 62.3804 55.9929 62.5069C55.2669 62.5069 54.5836 62.5069 53.9431 62.5069C53.9431 60.5252 53.9431 58.5014 53.9431 56.4775C54.669 56.5197 55.3096 56.5197 55.9929 56.5197Z" fill="black"/>
<path fill-rule="evenodd" clip-rule="evenodd" d="M28.5765 54.5381C27.7224 54.5381 26.911 54.5381 26.0569 54.5381C26.0569 54.496 26.0142 54.4538 26.0142 54.4117C26.0142 53.0203 26.0142 51.5867 26.0142 50.1953C26.0142 50.1532 26.0142 50.111 26.0142 50.0688C26.8683 50.0688 27.6797 50.0688 28.5338 50.0688C28.5765 51.5446 28.5765 53.0624 28.5765 54.5381Z" fill="black"/>
<path fill-rule="evenodd" clip-rule="evenodd" d="M30.5836 58.5435C29.9431 58.5435 29.2598 58.5435 28.5765 58.5435C28.5765 57.1943 28.5765 55.8451 28.5765 54.4958C29.2598 54.4958 29.9004 54.4958 30.5836 54.4958C30.5836 55.8872 30.5836 57.2365 30.5836 58.5435Z" fill="black"/>
<path fill-rule="evenodd" clip-rule="evenodd" d="M32.5908 62.5068C31.9502 62.5068 31.2669 62.5068 30.5836 62.5068C30.5836 61.1576 30.5836 59.8505 30.5836 58.5435C31.2669 58.5435 31.9502 58.5435 32.6335 58.5435C32.6335 59.5132 32.6335 60.483 32.6335 61.4527C32.6335 61.8322 32.5908 62.1695 32.5908 62.5068Z" fill="black"/>
<path fill-rule="evenodd" clip-rule="evenodd" d="M26.0569 50.0267C25.3737 50.0267 24.6904 50.0267 23.9644 50.0267C23.9644 49.3099 23.9644 48.6353 23.9644 47.9607C24.6477 47.9607 25.331 47.9607 26.0569 47.9607C26.0569 48.7196 26.0569 49.3942 26.0569 50.0267Z" fill="black"/>
<path fill-rule="evenodd" clip-rule="evenodd" d="M36.6904 24.9817C37.3737 24.9817 38.0142 24.9817 38.7402 24.9817C38.7402 27.8488 38.7402 30.6316 38.7402 33.4986C40.2776 33.4986 41.7722 33.4986 43.3096 33.4986C43.3096 34.2154 43.3096 34.89 43.3096 35.5646C41.7722 35.5646 40.2776 35.5646 38.6975 35.5646C38.6975 38.3896 38.6975 41.2145 38.6975 44.0394C38.0142 44.0394 37.3737 44.0394 36.6904 44.0394C36.6904 37.6306 36.6904 31.3062 36.6904 24.9817Z" fill="black"/>
<path fill-rule="evenodd" clip-rule="evenodd" d="M43.2669 35.5224C43.395 35.5224 43.4804 35.4802 43.5658 35.4802C45.3594 35.4802 47.1957 35.4802 48.9893 35.4802C49.0747 35.4802 49.2028 35.4802 49.331 35.4802C49.331 36.1548 49.331 36.8294 49.331 37.4619C47.9644 37.4619 46.6406 37.4619 45.2313 37.4619C45.2313 39.6544 45.2313 41.8047 45.2313 43.955C44.548 43.955 43.9075 43.955 43.2242 43.955C43.3096 41.1723 43.3096 38.3473 43.2669 35.5224Z" fill="black"/>
<path fill-rule="evenodd" clip-rule="evenodd" d="M49.3737 37.5042C50.8683 37.5042 52.363 37.5042 53.9004 37.5042C53.9004 38.1788 53.9004 38.8112 53.9004 39.4858C53.0463 39.4858 52.2349 39.4858 51.3808 39.4858C51.3808 41.7205 51.3808 43.8286 51.3808 45.9789C50.6975 45.9789 50.0569 45.9789 49.3737 45.9789C49.3737 43.154 49.3737 40.3291 49.3737 37.5042Z" fill="black"/>
<path fill-rule="evenodd" clip-rule="evenodd" d="M53.9004 39.4858C54.5836 39.4858 55.2669 39.4858 55.9929 39.4858C55.9929 40.3291 55.9929 41.1724 55.9929 41.9735C55.3096 41.9735 54.6263 41.9735 53.9004 41.9735C53.9004 41.1302 53.9004 40.3291 53.9004 39.4858Z" fill="black"/>
<path fill-rule="evenodd" clip-rule="evenodd" d="M53.9004 39.4858C53.9004 40.3291 53.9004 41.1302 53.9004 41.9734C54.6263 41.9734 55.3096 41.9734 55.9929 41.9734C55.9929 42.0999 55.9929 42.2264 55.9929 42.3107C55.9929 46.9487 55.9929 51.5445 55.9929 56.1824C55.9929 56.3089 55.9929 56.3932 55.9929 56.5197C55.3096 56.5197 54.669 56.5197 53.9004 56.5197C53.9004 58.5436 53.9004 60.5252 53.9004 62.5491C53.089 62.5491 52.2349 62.5491 51.3808 62.5491C51.3808 64.0669 51.3808 65.5426 51.3808 67.0605C45.7865 67.0605 40.2349 67.0605 34.6833 67.0605C34.6833 65.5848 34.6833 64.1091 34.6833 62.5491C33.9573 62.5491 33.274 62.5491 32.5907 62.5491C32.5907 62.2118 32.6334 61.8323 32.6334 61.495C32.6334 60.5252 32.6334 59.5555 32.6334 58.5857C31.9502 58.5857 31.2669 58.5857 30.5836 58.5857C30.5836 57.2365 30.5836 55.9294 30.5836 54.5381C29.9004 54.5381 29.2598 54.5381 28.5765 54.5381C28.5765 53.0624 28.5765 51.5866 28.5765 50.0688C27.7224 50.0688 26.8683 50.0688 26.0569 50.0688C26.0569 49.3942 26.0569 48.7195 26.0569 48.0028C25.331 48.0028 24.6477 48.0028 23.9644 48.0028C23.9644 46.9065 23.9644 45.8524 23.9644 44.7562C23.9644 44.5454 23.9644 44.2924 23.9644 44.0394C25.5018 44.0394 27.0391 44.0394 28.5338 44.0394C28.5338 44.6719 28.5338 45.3465 28.5338 46.0211C29.2171 46.0211 29.8576 46.0211 30.5409 46.0211C30.5409 48.0449 30.5409 50.0266 30.5409 52.0083C31.2242 52.0083 31.9075 52.0083 32.5907 52.0083C32.5907 51.8818 32.5907 51.7975 32.5907 51.671C32.5907 42.901 32.5907 34.1311 32.5907 25.3612C32.5907 25.2347 32.548 25.1082 32.548 24.9817C33.9146 24.9817 35.2811 24.9817 36.6477 24.9817C36.6477 31.3062 36.6477 37.6306 36.6477 43.9973C37.331 43.9973 37.9715 43.9973 38.6548 43.9973C38.6548 41.1723 38.6548 38.3474 38.6548 35.5225C40.1922 35.5225 41.7295 35.5225 43.2669 35.5225C43.2669 38.3474 43.2669 41.1723 43.2669 43.9973C43.9502 43.9973 44.5907 43.9973 45.274 43.9973C45.274 41.8469 45.274 39.6966 45.274 37.5041C46.6406 37.5041 48.0071 37.5041 49.3737 37.5041C49.3737 40.3291 49.3737 43.154 49.3737 45.9789C50.0142 45.9789 50.6975 45.9789 51.3808 45.9789C51.3808 43.8286 51.3808 41.6783 51.3808 39.4858C52.2349 39.4858 53.089 39.4858 53.9004 39.4858Z" fill="white"/>
</g>
<defs>
<clipPath id="clip0_258_19228">
<rect width="36" height="46" fill="white" transform="translate(22 23)"/>
</clipPath>
</defs>
</svg>
