<svg width="80" height="80" viewBox="0 0 80 80" fill="none" xmlns="http://www.w3.org/2000/svg">
<rect y="0.200684" width="79.7986" height="79.6122" rx="39.8061" fill="#FFC284"/>
<rect y="0.200684" width="79.7986" height="79.6122" rx="39.8061" fill="#921C0C" fill-opacity="0.07"/>
<path fill-rule="evenodd" clip-rule="evenodd" d="M34.5964 29.4713C37.0395 28.2153 39.8438 27.8428 42.5315 28.4172C45.2192 28.9917 47.624 30.4775 49.3361 32.6216C49.3599 32.6515 49.387 32.682 49.4169 32.7128L46.7601 32.5877C46.2523 32.5639 45.8214 32.9559 45.7967 33.4645C45.7834 33.7197 45.8772 33.9553 46.0363 34.1295C46.1946 34.3028 46.42 34.4165 46.6735 34.428L51.7463 34.6676C51.991 34.6804 52.2307 34.5929 52.4113 34.4279C52.5918 34.263 52.7005 34.0322 52.7099 33.7873L52.9277 28.7144C52.949 28.2056 52.5561 27.7755 52.0473 27.7543C51.5377 27.7321 51.1092 28.1268 51.0872 28.6347L50.9759 31.2176C48.9558 28.7173 46.1345 26.9845 42.9843 26.3112C39.8079 25.6324 36.4937 26.0726 33.6064 27.5569C30.7191 29.0413 28.4373 31.4779 27.1499 34.4516C25.8624 37.4253 25.6489 40.7522 26.5457 43.8652C27.4425 46.9783 29.3942 49.685 32.0682 51.5242C34.7422 53.3634 37.9731 54.2212 41.2103 53.9515C44.4476 53.6819 47.4909 52.3014 49.8217 50.0453C52.1525 47.7891 53.6267 44.797 53.9929 41.5787C54.0602 40.9878 53.6342 40.4543 53.0415 40.3873C52.4488 40.3202 51.9138 40.7449 51.8465 41.3359C51.5366 44.0591 50.2892 46.5909 48.317 48.4999C46.3448 50.4089 43.7697 51.577 41.0305 51.8052C38.2913 52.0334 35.5575 51.3075 33.2948 49.7513C31.0322 48.1951 29.3808 45.9048 28.6219 43.2706C27.8631 40.6365 28.0437 37.8215 29.1332 35.3052C30.2226 32.789 32.1533 30.7273 34.5964 29.4713Z" fill="#7C2121"/>
<path d="M42.5315 28.4172L42.3225 29.3951V29.3951L42.5315 28.4172ZM34.5964 29.4713L34.1392 28.5819L34.5964 29.4713ZM49.3361 32.6216L50.1175 31.9976L50.1175 31.9976L49.3361 32.6216ZM49.4169 32.7128L49.3699 33.7117L51.8976 33.8306L50.1341 32.0159L49.4169 32.7128ZM46.7601 32.5877L46.8071 31.5888L46.807 31.5888L46.7601 32.5877ZM45.7967 33.4645L46.7953 33.5165L46.7955 33.5131L45.7967 33.4645ZM46.0363 34.1295L46.7746 33.455L46.7746 33.455L46.0363 34.1295ZM46.6735 34.428L46.7207 33.4291L46.7186 33.429L46.6735 34.428ZM51.7463 34.6676L51.7985 33.6689L51.7935 33.6687L51.7463 34.6676ZM52.4113 34.4279L51.7368 33.6896L51.7368 33.6897L52.4113 34.4279ZM52.7099 33.7873L51.7108 33.7444L51.7106 33.7492L52.7099 33.7873ZM52.9277 28.7144L53.9268 28.7573L53.9269 28.7561L52.9277 28.7144ZM52.0473 27.7543L52.0039 28.7533L52.0056 28.7534L52.0473 27.7543ZM51.0872 28.6347L50.0881 28.5913L50.0881 28.5917L51.0872 28.6347ZM50.9759 31.2176L50.1981 31.8461L51.8611 33.9045L51.975 31.2607L50.9759 31.2176ZM42.9843 26.3112L42.7753 27.2892V27.2892L42.9843 26.3112ZM33.6064 27.5569L34.0637 28.4463L33.6064 27.5569ZM27.1499 34.4516L28.0675 34.8489L27.1499 34.4516ZM26.5457 43.8652L25.5848 44.1421L26.5457 43.8652ZM32.0682 51.5242L32.6349 50.7003H32.6349L32.0682 51.5242ZM41.2103 53.9515L41.1273 52.955L41.2103 53.9515ZM49.8217 50.0453L50.5172 50.7638L49.8217 50.0453ZM53.9929 41.5787L54.9865 41.6918L53.9929 41.5787ZM53.0415 40.3873L53.1539 39.3936L53.0415 40.3873ZM51.8465 41.3359L52.8401 41.449V41.449L51.8465 41.3359ZM48.317 48.4999L49.0125 49.2184L48.317 48.4999ZM33.2948 49.7513L32.7281 50.5752H32.7281L33.2948 49.7513ZM28.6219 43.2706L29.5829 42.9938L28.6219 43.2706ZM29.1332 35.3052L28.2155 34.9079L29.1332 35.3052ZM42.7405 27.4393C39.8273 26.8167 36.7876 27.2204 34.1392 28.5819L35.0536 30.3606C37.2914 29.2102 39.8603 28.8689 42.3225 29.3951L42.7405 27.4393ZM50.1175 31.9976C48.2609 29.6726 45.6537 28.062 42.7405 27.4393L42.3225 29.3951C44.7846 29.9214 46.987 31.2824 48.5546 33.2456L50.1175 31.9976ZM50.1341 32.0159C50.1235 32.0049 50.1184 31.9987 50.1175 31.9976L48.5546 33.2456C48.6015 33.3042 48.6505 33.359 48.6998 33.4097L50.1341 32.0159ZM46.7131 33.5866L49.3699 33.7117L49.4639 31.7139L46.8071 31.5888L46.7131 33.5866ZM46.7955 33.5131C46.7935 33.5543 46.7576 33.5887 46.7133 33.5866L46.807 31.5888C45.747 31.5391 44.8493 32.3575 44.7979 33.416L46.7955 33.5131ZM46.7746 33.455C46.7802 33.4612 46.7856 33.4694 46.7897 33.4802C46.794 33.4919 46.7959 33.5048 46.7953 33.5165L44.798 33.4126C44.7701 33.9497 44.9686 34.4434 45.298 34.804L46.7746 33.455ZM46.7186 33.429C46.7414 33.43 46.7618 33.441 46.7746 33.455L45.298 34.804C45.6275 35.1646 46.0987 35.403 46.6284 35.4269L46.7186 33.429ZM51.7935 33.6687L46.7207 33.4291L46.6263 35.4268L51.6991 35.6665L51.7935 33.6687ZM51.7368 33.6897C51.7507 33.6769 51.7717 33.6675 51.7985 33.6689L51.6941 35.6662C52.2103 35.6932 52.7107 35.5089 53.0857 35.1662L51.7368 33.6897ZM51.7106 33.7492C51.7116 33.7224 51.7229 33.7024 51.7368 33.6896L53.0857 35.1662C53.4608 34.8236 53.6895 34.3419 53.7091 33.8253L51.7106 33.7492ZM51.9286 28.6715L51.7108 33.7444L53.7089 33.8302L53.9268 28.7573L51.9286 28.6715ZM52.0056 28.7534C51.9586 28.7515 51.927 28.7117 51.9286 28.6727L53.9269 28.7561C53.971 27.6995 53.1536 26.7996 52.089 26.7552L52.0056 28.7534ZM52.0862 28.6781C52.0844 28.7203 52.0477 28.7552 52.0039 28.7533L52.0907 26.7552C51.0276 26.709 50.1341 27.5334 50.0881 28.5913L52.0862 28.6781ZM51.975 31.2607L52.0862 28.6778L50.0881 28.5917L49.9768 31.1746L51.975 31.2607ZM42.7753 27.2892C45.7018 27.9146 48.3222 29.5242 50.1981 31.8461L51.7538 30.5892C49.5895 27.9104 46.5672 26.0544 43.1933 25.3333L42.7753 27.2892ZM34.0637 28.4463C36.7456 27.0675 39.8244 26.6585 42.7753 27.2892L43.1933 25.3333C39.7914 24.6062 36.2418 25.0777 33.1492 26.6676L34.0637 28.4463ZM28.0675 34.8489C29.2629 32.088 31.3817 29.8251 34.0637 28.4463L33.1492 26.6676C30.0565 28.2575 27.6118 30.8678 26.2322 34.0543L28.0675 34.8489ZM27.5066 43.5884C26.674 40.6983 26.8722 37.6098 28.0675 34.8489L26.2322 34.0543C24.8526 37.2409 24.6237 40.806 25.5848 44.1421L27.5066 43.5884ZM32.6349 50.7003C30.1513 48.9921 28.3392 46.4785 27.5066 43.5884L25.5848 44.1421C26.5458 47.4781 28.6371 50.378 31.5015 52.3481L32.6349 50.7003ZM41.1273 52.955C38.1198 53.2055 35.1186 52.4085 32.6349 50.7003L31.5015 52.3481C34.3659 54.3182 37.8263 55.2369 41.2933 54.9481L41.1273 52.955ZM49.1262 49.3267C46.9616 51.422 44.1348 52.7045 41.1273 52.955L41.2933 54.9481C44.7604 54.6593 48.0202 53.1807 50.5172 50.7638L49.1262 49.3267ZM52.9993 41.4657C52.6593 44.4533 51.2908 47.2315 49.1262 49.3267L50.5172 50.7638C53.0143 48.3468 54.594 45.1408 54.9865 41.6918L52.9993 41.4657ZM52.9291 41.3809C52.9755 41.3862 53.0038 41.4264 52.9993 41.4657L54.9865 41.6918C55.1166 40.5492 54.293 39.5225 53.1539 39.3936L52.9291 41.3809ZM52.8401 41.449C52.8446 41.4092 52.8822 41.3756 52.9291 41.3809L53.1539 39.3936C52.0154 39.2648 50.9829 40.0807 50.8529 41.2228L52.8401 41.449ZM49.0125 49.2184C51.151 47.1485 52.5039 44.4028 52.8401 41.449L50.8529 41.2228C50.5693 43.7153 49.4275 46.0332 47.6215 47.7813L49.0125 49.2184ZM41.1135 52.8017C44.0825 52.5544 46.8741 51.2883 49.0125 49.2184L47.6215 47.7813C45.8155 49.5295 43.4569 50.5996 40.9474 50.8086L41.1135 52.8017ZM32.7281 50.5752C35.1811 52.2624 38.1445 53.0491 41.1135 52.8017L40.9474 50.8086C38.438 51.0177 35.9338 50.3527 33.8615 48.9274L32.7281 50.5752ZM27.661 43.5474C28.4841 46.4045 30.2751 48.888 32.7281 50.5752L33.8615 48.9274C31.7893 47.5021 30.2775 45.405 29.5829 42.9938L27.661 43.5474ZM28.2155 34.9079C27.0339 37.637 26.8379 40.6903 27.661 43.5474L29.5829 42.9938C28.8882 40.5826 29.0536 38.0059 30.0508 35.7026L28.2155 34.9079ZM34.1392 28.5819C31.4907 29.9435 29.397 32.1789 28.2155 34.9079L30.0508 35.7026C31.0481 33.3991 32.8159 31.511 35.0536 30.3606L34.1392 28.5819Z" fill="#7C2121"/>
<path d="M10.1883 66.2019C-4.81166 16.2019 27.6883 -0.298142 59.1882 5.20044C59.1882 5.20044 38.1884 -8.29834 15.6882 8.20044C-6.81203 24.6992 -1.81166 55.7019 10.1883 66.2019Z" fill="white" fill-opacity="0.26"/>
<path d="M13.7981 69.8117C63.7981 84.8117 80.2981 52.3117 74.7996 20.8118C74.7996 20.8118 88.2983 41.8116 71.7996 64.3118C55.3008 86.812 24.2981 81.8117 13.7981 69.8117Z" fill="black" fill-opacity="0.06"/>
</svg>
