<svg width="80" height="80" viewBox="0 0 80 80" fill="none" xmlns="http://www.w3.org/2000/svg">
<rect y="0.200684" width="79.7986" height="79.6122" rx="39.8061" fill="#9595AD"/>
<rect y="0.200684" width="79.7986" height="79.6122" rx="39.8061" fill="black" fill-opacity="0.05"/>
<path d="M10.1883 66.2019C-4.81166 16.2019 27.6883 -0.298142 59.1882 5.20044C59.1882 5.20044 38.1884 -8.29834 15.6882 8.20044C-6.81203 24.6992 -1.81166 55.7019 10.1883 66.2019Z" fill="white" fill-opacity="0.13"/>
<path d="M13.7981 69.8117C63.7981 84.8117 80.2981 52.3117 74.7996 20.8118C74.7996 20.8118 88.2983 41.8116 71.7996 64.3118C55.3008 86.812 24.2981 81.8117 13.7981 69.8117Z" fill="black" fill-opacity="0.14"/>
<path fill-rule="evenodd" clip-rule="evenodd" d="M42.2617 30.7509C42.1778 29.9404 42.0904 29.0994 41.8754 28.2602C41.29 26.2525 39.6681 25 37.9292 25C36.9593 24.9964 35.7324 25.5941 35.0368 26.1989L29.2713 31.0283H26.2531C24.0318 31.0283 22.2457 32.7407 21.9084 35.2117C21.6218 37.5844 21.5519 42.0631 21.9084 44.6737C22.2177 47.2844 23.9234 48.9717 26.2531 48.9717H29.2713L35.1487 53.8727C35.7516 54.397 36.816 54.9982 37.7946 54.9982C37.8576 55 37.9135 55 37.9694 55C39.7415 55 41.3022 53.7009 41.8877 51.6987C42.1082 50.8522 42.1856 50.0588 42.2603 49.292L42.2603 49.292L42.2617 49.2777L42.3403 48.5136C42.6409 46.0354 42.6409 33.9485 42.3403 31.4881L42.2617 30.7509ZM49.0108 30.8243C48.5302 30.1157 47.5777 29.9386 46.8804 30.4306C46.1901 30.9263 46.0188 31.9033 46.4994 32.6101C47.8364 34.5801 48.5721 37.2033 48.5721 40C48.5721 42.7949 47.8364 45.4199 46.4994 47.39C46.0188 48.0967 46.1901 49.0737 46.8821 49.5694C47.1408 49.7519 47.4431 49.8485 47.7542 49.8485C48.2558 49.8485 48.7242 49.5962 49.0108 49.1757C50.699 46.6885 51.6305 43.4302 51.6305 40C51.6305 36.5699 50.699 33.3115 49.0108 30.8243ZM52.1499 25.3684C52.8455 24.8746 53.8015 25.0553 54.2786 25.7621C56.8931 29.611 58.3332 34.6694 58.3332 39.9998C58.3332 45.3338 56.8931 50.3905 54.2786 54.2393C53.9937 54.6598 53.5236 54.9121 53.022 54.9121C52.7109 54.9121 52.4103 54.8155 52.1517 54.633C51.4596 54.1374 51.2883 53.1622 51.7672 52.4536C54.0287 49.1218 55.2748 44.6986 55.2748 39.9998C55.2748 35.3028 54.0287 30.8796 51.7672 27.5479C51.2883 26.8411 51.4596 25.8641 52.1499 25.3684Z" fill="white"/>
</svg>
