<svg width="80" height="80" viewBox="0 0 80 80" fill="none" xmlns="http://www.w3.org/2000/svg">
<rect y="0.200195" width="79.7986" height="79.6122" rx="39.8061" fill="#FFC284"/>
<path d="M10.1883 66.2019C-4.81166 16.2019 27.6883 -0.298142 59.1882 5.20044C59.1882 5.20044 38.1884 -8.29834 15.6882 8.20044C-6.81203 24.6992 -1.81166 55.7019 10.1883 66.2019Z" fill="white" fill-opacity="0.26"/>
<path d="M13.7981 69.8117C63.7981 84.8117 80.2981 52.3117 74.7996 20.8118C74.7996 20.8118 88.2983 41.8116 71.7996 64.3118C55.3008 86.812 24.2981 81.8117 13.7981 69.8117Z" fill="black" fill-opacity="0.06"/>
<path fill-rule="evenodd" clip-rule="evenodd" d="M42.2619 30.7509C42.178 29.9404 42.0906 29.0994 41.8757 28.2602C41.2902 26.2525 39.6684 25 37.9295 25C36.9595 24.9964 35.7326 25.5941 35.0371 26.1989L29.2715 31.0283H26.2533C24.032 31.0283 22.2459 32.7407 21.9086 35.2117C21.622 37.5844 21.5521 42.0631 21.9086 44.6737C22.218 47.2844 23.9237 48.9717 26.2533 48.9717H29.2715L35.1489 53.8727C35.7519 54.397 36.8162 54.9982 37.7949 54.9982C37.8578 55 37.9137 55 37.9697 55C39.7418 55 41.3024 53.7009 41.8879 51.6987C42.1085 50.8522 42.1858 50.0588 42.2605 49.292L42.2605 49.292L42.2619 49.2777L42.3406 48.5136C42.6412 46.0354 42.6412 33.9485 42.3406 31.4881L42.2619 30.7509ZM49.011 30.8243C48.5304 30.1157 47.5779 29.9386 46.8806 30.4306C46.1903 30.9263 46.019 31.9033 46.4996 32.6101C47.8366 34.5801 48.5724 37.2033 48.5724 40C48.5724 42.7949 47.8366 45.4199 46.4996 47.39C46.019 48.0967 46.1903 49.0737 46.8824 49.5694C47.141 49.7519 47.4434 49.8485 47.7545 49.8485C48.256 49.8485 48.7244 49.5962 49.011 49.1757C50.6993 46.6885 51.6308 43.4302 51.6308 40C51.6308 36.5699 50.6993 33.3115 49.011 30.8243ZM52.1502 25.3684C52.8458 24.8746 53.8017 25.0553 54.2788 25.7621C56.8933 29.611 58.3334 34.6694 58.3334 39.9998C58.3334 45.3338 56.8933 50.3905 54.2788 54.2393C53.994 54.6598 53.5238 54.9121 53.0223 54.9121C52.7112 54.9121 52.4106 54.8155 52.1519 54.633C51.4599 54.1374 51.2886 53.1622 51.7674 52.4536C54.0289 49.1218 55.275 44.6986 55.275 39.9998C55.275 35.3028 54.0289 30.8796 51.7674 27.5479C51.2886 26.8411 51.4599 25.8641 52.1502 25.3684Z" fill="#7C2121"/>
</svg>
