<svg width="80" height="80" viewBox="0 0 80 80" fill="none" xmlns="http://www.w3.org/2000/svg">
<rect y="0.200684" width="79.7986" height="79.6122" rx="39.8061" fill="#9595AD"/>
<path d="M10.1883 66.2019C-4.81166 16.2019 27.6883 -0.298142 59.1882 5.20044C59.1882 5.20044 38.1884 -8.29834 15.6882 8.20044C-6.81203 24.6992 -1.81166 55.7019 10.1883 66.2019Z" fill="white" fill-opacity="0.13"/>
<path d="M13.7981 69.8117C63.7981 84.8117 80.2981 52.3117 74.7996 20.8118C74.7996 20.8118 88.2983 41.8116 71.7996 64.3118C55.3008 86.812 24.2981 81.8117 13.7981 69.8117Z" fill="black" fill-opacity="0.14"/>
<path fill-rule="evenodd" clip-rule="evenodd" d="M42.2618 30.7509C42.1779 29.9404 42.0905 29.0994 41.8756 28.2602C41.2901 26.2525 39.6683 25 37.9293 25C36.9594 24.9964 35.7325 25.5941 35.037 26.1989L29.2714 31.0283H26.2532C24.0319 31.0283 22.2458 32.7407 21.9085 35.2117C21.6219 37.5844 21.552 42.0631 21.9085 44.6737C22.2178 47.2844 23.9236 48.9717 26.2532 48.9717H29.2714L35.1488 53.8727C35.7517 54.397 36.8161 54.9982 37.7948 54.9982C37.8577 55 37.9136 55 37.9695 55C39.7417 55 41.3023 53.7009 41.8878 51.6987C42.1084 50.8522 42.1857 50.0588 42.2604 49.292L42.2604 49.292L42.2618 49.2777L42.3404 48.5136C42.641 46.0354 42.641 33.9485 42.3404 31.4881L42.2618 30.7509ZM49.0109 30.8243C48.5303 30.1157 47.5778 29.9386 46.8805 30.4306C46.1902 30.9263 46.0189 31.9033 46.4995 32.6101C47.8365 34.5801 48.5722 37.2033 48.5722 40C48.5722 42.7949 47.8365 45.4199 46.4995 47.39C46.0189 48.0967 46.1902 49.0737 46.8823 49.5694C47.1409 49.7519 47.4433 49.8485 47.7543 49.8485C48.2559 49.8485 48.7243 49.5962 49.0109 49.1757C50.6992 46.6885 51.6307 43.4302 51.6307 40C51.6307 36.5699 50.6992 33.3115 49.0109 30.8243ZM52.1501 25.3684C52.8456 24.8746 53.8016 25.0553 54.2787 25.7621C56.8932 29.611 58.3333 34.6694 58.3333 39.9998C58.3333 45.3338 56.8932 50.3905 54.2787 54.2393C53.9938 54.6598 53.5237 54.9121 53.0221 54.9121C52.7111 54.9121 52.4105 54.8155 52.1518 54.633C51.4597 54.1374 51.2885 53.1622 51.7673 52.4536C54.0288 49.1218 55.2749 44.6986 55.2749 39.9998C55.2749 35.3028 54.0288 30.8796 51.7673 27.5479C51.2885 26.8411 51.4597 25.8641 52.1501 25.3684Z" fill="white"/>
</svg>
