<svg width="80" height="80" viewBox="0 0 80 80" fill="none" xmlns="http://www.w3.org/2000/svg">
<path d="M53.845 61.6603C53.845 62.1516 53.7557 62.5089 53.577 62.7323C53.443 62.9109 53.1303 63.0003 52.639 63.0003H28.117C27.6257 63.0003 27.2907 62.9109 27.112 62.7323C26.978 62.5089 26.911 62.1516 26.911 61.6603V56.3673C26.911 55.7419 26.978 55.3623 27.112 55.2283C27.2907 55.0943 27.6257 55.0273 28.117 55.0273H35.219V26.8873L28.117 28.0933C27.581 28.1826 27.2237 28.1603 27.045 28.0263C26.8663 27.8476 26.777 27.5126 26.777 27.0213V22.1303C26.777 21.7283 26.8217 21.3933 26.911 21.1253C27.045 20.8573 27.4023 20.6339 27.983 20.4553L39.105 17.4403C39.8643 17.2169 40.6013 17.1053 41.316 17.1053C42.0307 17.0606 42.656 17.1723 43.192 17.4403C43.728 17.6636 44.1523 18.0433 44.465 18.5793C44.7777 19.1153 44.934 19.8076 44.934 20.6563V55.0273H52.639C53.1303 55.0273 53.443 55.0943 53.577 55.2283C53.7557 55.3623 53.845 55.7419 53.845 56.3673V61.6603Z" fill="#4792DF"/>
</svg>
