<svg width="80" height="80" viewBox="0 0 80 80" fill="none" xmlns="http://www.w3.org/2000/svg">
<path d="M56.345 61.6599C56.345 62.1512 56.2557 62.5085 56.077 62.7319C55.943 62.9105 55.6303 62.9999 55.139 62.9999H28.942C26.9767 62.9999 25.458 62.5979 24.386 61.7939C23.3587 60.9452 22.845 59.2702 22.845 56.7689C22.845 55.1162 23.4033 53.3295 24.52 51.4089C25.6813 49.4882 27.2447 47.5899 29.21 45.7139C31.0413 43.9272 32.9397 42.3415 34.905 40.9569C36.8703 39.5722 38.59 38.4109 40.064 37.4729C41.3593 36.6689 42.409 35.9542 43.213 35.3289C44.0617 34.6589 44.7093 34.0559 45.156 33.5199C45.6473 32.9392 45.9823 32.3809 46.161 31.8449C46.3397 31.3089 46.429 30.7282 46.429 30.1029C46.429 29.5669 46.3173 29.0309 46.094 28.4949C45.8707 27.9589 45.5133 27.4899 45.022 27.0879C44.5307 26.6859 43.8607 26.3509 43.012 26.0829C42.208 25.8149 41.1807 25.6809 39.93 25.6809C38.2327 25.6809 36.513 25.9712 34.771 26.5519C33.0737 27.0879 31.3093 27.9589 29.478 29.1649C29.1207 29.3882 28.7857 29.4999 28.473 29.4999C28.1603 29.4999 27.87 29.3212 27.602 28.9639L24.52 24.2739C24.0733 23.5592 24.1627 22.9785 24.788 22.5319C29.5673 18.9585 34.8827 17.1719 40.734 17.1719C42.9673 17.1719 45.0443 17.4399 46.965 17.9759C48.8857 18.4672 50.5607 19.2489 51.99 20.3209C53.4193 21.3482 54.536 22.6435 55.34 24.2069C56.144 25.7702 56.546 27.6015 56.546 29.7009C56.546 31.3535 56.278 32.8722 55.742 34.2569C55.206 35.5969 54.4467 36.8475 53.464 38.0089C52.4813 39.1255 51.32 40.1752 49.98 41.1579C48.6847 42.0959 47.233 43.0339 45.625 43.9719C44.5083 44.5972 43.3693 45.3342 42.208 46.1829C41.0467 46.9869 39.93 47.8579 38.858 48.7959C37.8307 49.7339 36.8703 50.7389 35.977 51.8109C35.1283 52.8382 34.4807 53.9102 34.034 55.0269H55.139C55.6303 55.0269 55.943 55.0939 56.077 55.2279C56.2557 55.3619 56.345 55.7415 56.345 56.3669V61.6599Z" fill="#3AAF62"/>
</svg>
