<svg width="80" height="80" viewBox="0 0 80 80" fill="none" xmlns="http://www.w3.org/2000/svg">
<path d="M48.475 39.2819C51.3784 40.0412 53.4554 41.4035 54.706 43.3689C56.0014 45.2895 56.649 47.3889 56.649 49.6669C56.649 51.8109 56.2024 53.7539 55.309 55.4959C54.4604 57.2379 53.2544 58.7342 51.691 59.9849C50.1724 61.1909 48.3187 62.1289 46.13 62.7989C43.9414 63.4242 41.5517 63.7369 38.961 63.7369C35.8344 63.7369 32.9534 63.3795 30.318 62.6649C27.6827 61.9502 25.293 60.7442 23.149 59.0469C22.7917 58.6895 22.5907 58.4215 22.546 58.2429C22.546 58.0195 22.6577 57.7069 22.881 57.3049L25.829 52.4809C26.1417 51.9895 26.432 51.7215 26.7 51.6769C27.0127 51.5875 27.4594 51.7215 28.04 52.0789C29.648 53.2402 31.3677 54.0665 33.199 54.5579C35.0304 55.0045 36.7277 55.2279 38.291 55.2279C40.971 55.2279 43.0034 54.6249 44.388 53.4189C45.8174 52.1682 46.532 50.4709 46.532 48.3269C46.532 46.8975 45.9514 45.6469 44.79 44.5749C43.6287 43.4582 41.8197 42.8999 39.363 42.8999H37.621C36.549 42.8999 35.879 42.7659 35.611 42.4979C35.343 42.2299 35.209 41.6269 35.209 40.6889V38.0089C35.209 36.9815 35.3207 36.3339 35.544 36.0659C35.812 35.7532 36.3257 35.5969 37.085 35.5969H39.028C41.1274 35.5969 42.7354 35.1055 43.852 34.1229C45.0134 33.1402 45.594 31.8895 45.594 30.3709C45.594 29.5222 45.4154 28.8075 45.058 28.2269C44.7007 27.6462 44.2094 27.1772 43.584 26.8199C43.0034 26.4625 42.3334 26.1945 41.574 26.0159C40.8147 25.8372 40.033 25.7479 39.229 25.7479C37.6657 25.7479 35.9684 25.9935 34.137 26.4849C32.3504 26.9762 30.6977 27.7355 29.179 28.7629C28.5984 29.1202 28.1517 29.2765 27.839 29.2319C27.571 29.1872 27.303 28.9192 27.035 28.4279L24.355 23.9389C24.087 23.5369 23.953 23.2242 23.953 23.0009C23.953 22.7329 24.1317 22.4425 24.489 22.1299C25.561 21.2812 26.7224 20.5442 27.973 19.9189C29.2684 19.2935 30.586 18.7799 31.926 18.3779C33.3107 17.9759 34.6954 17.6855 36.08 17.5069C37.4647 17.2835 38.8047 17.1719 40.1 17.1719C42.11 17.1719 44.0307 17.3952 45.862 17.8419C47.738 18.2439 49.3907 18.9139 50.82 19.8519C52.2494 20.7899 53.3884 22.0182 54.237 23.5369C55.0857 25.0109 55.51 26.7975 55.51 28.8969C55.51 29.9689 55.3314 31.0185 54.974 32.0459C54.6614 33.0732 54.1924 34.0335 53.567 34.9269C52.9417 35.8202 52.1824 36.6242 51.289 37.3389C50.4404 38.0089 49.5024 38.5449 48.475 38.9469V39.2819Z" fill="#FF4057"/>
</svg>
