<svg width="39" height="46" viewBox="0 0 39 46" fill="none" xmlns="http://www.w3.org/2000/svg">
<path d="M1 41.9142H3.17885C3.73113 41.9142 4.17885 41.4664 4.17885 40.9142V4.21166V3.15378C4.17885 2.39472 4.99132 1.9124 5.6577 2.27588L7.77006 3.42807L9.40241 4.21166L36.3274 14.7893C37.1676 15.1194 37.1749 16.3058 36.3388 16.6463L10.0253 27.3596C9.64868 27.5129 9.40241 27.8791 9.40241 28.2858V40.9142C9.40241 41.4664 9.85012 41.9142 10.4024 41.9142H12.5813C13.1335 41.9142 13.5813 42.3619 13.5813 42.9142V45.0001C13.5813 45.5524 13.1335 46.0001 12.5813 46.0001H1C0.447715 46.0001 0 45.5524 0 45.0001V42.9142C0 42.3619 0.447715 41.9142 1 41.9142Z" fill="#FF324B"/>
<path d="M4.17883 4.21155V1C4.17883 0.447715 4.62655 0 5.17883 0H8.4024C8.95469 0 9.4024 0.447716 9.4024 1V4.21155H4.17883Z" fill="black"/>
<path d="M4.17885 40.9137V28.6128C4.17885 28.0605 4.62656 27.6128 5.17885 27.6128L8.40241 27.6128C8.95469 27.6128 9.40241 28.0605 9.40241 28.6128V40.9137C9.40241 41.466 9.85012 41.9137 10.4024 41.9137H12.5813C13.1335 41.9137 13.5813 42.3615 13.5813 42.9137V44.9997C13.5813 45.552 13.1335 45.9997 12.5813 45.9997H1C0.447715 45.9997 0 45.552 0 44.9997V42.9137C0 42.3615 0.447715 41.9137 1 41.9137H3.17885C3.73113 41.9137 4.17885 41.466 4.17885 40.9137Z" fill="black"/>
</svg>
