<svg width="100" height="100" viewBox="0 0 100 100" fill="none" xmlns="http://www.w3.org/2000/svg">
<circle cx="50" cy="50" r="40" fill="#747D9D"/>
<circle cx="49.9999" cy="48.6667" r="26.6667" fill="#E0FCF9"/>
<path d="M76.6666 52.6667C76.6666 67.3943 64.7275 79.3333 49.9999 79.3333C35.2723 79.3333 23.3333 67.3943 23.3333 52.6667C23.3333 37.9391 35.2723 26 49.9999 26C64.7275 26 76.6666 37.9391 76.6666 52.6667ZM28.6825 52.6667C28.6825 64.44 38.2266 73.9841 49.9999 73.9841C61.7732 73.9841 71.3174 64.44 71.3174 52.6667C71.3174 40.8934 61.7732 31.3492 49.9999 31.3492C38.2266 31.3492 28.6825 40.8934 28.6825 52.6667Z" fill="black" fill-opacity="0.1"/>
<path d="M76.6666 48.6667C76.6666 63.3943 64.7275 75.3333 49.9999 75.3333C35.2723 75.3333 23.3333 63.3943 23.3333 48.6667C23.3333 33.9391 35.2723 22 49.9999 22C64.7275 22 76.6666 33.9391 76.6666 48.6667ZM28.6825 48.6667C28.6825 60.44 38.2266 69.9841 49.9999 69.9841C61.7732 69.9841 71.3174 60.44 71.3174 48.6667C71.3174 36.8934 61.7732 27.3492 49.9999 27.3492C38.2266 27.3492 28.6825 36.8934 28.6825 48.6667Z" fill="#2CC0BE"/>
<path fill-rule="evenodd" clip-rule="evenodd" d="M48.6667 35.3333C48.6667 34.597 49.2637 34 50 34C50.7364 34 51.3334 34.597 51.3334 35.3333V49.0232C52.1306 49.4843 52.6669 50.3461 52.6669 51.3333C52.6669 52.806 51.473 53.9999 50.0003 53.9999C49.9633 53.9999 49.9265 53.9992 49.8898 53.9977L40.3988 59.4773C39.4422 60.0296 38.2191 59.7019 37.6668 58.7453C37.1145 57.7887 37.4422 56.5655 38.3988 56.0132L47.3816 50.827C47.5297 50.0564 48.0095 49.4037 48.6667 49.0235V35.3333Z" fill="#A0DBDA"/>
<path fill-rule="evenodd" clip-rule="evenodd" d="M48.6667 33.9998C48.6667 33.2635 49.2637 32.6665 50 32.6665C50.7364 32.6665 51.3334 33.2635 51.3334 33.9998V47.6897C52.1306 48.1508 52.6669 49.0126 52.6669 49.9998C52.6669 51.4725 51.473 52.6664 50.0003 52.6664C49.9633 52.6664 49.9265 52.6657 49.8898 52.6642L40.3988 58.1438C39.4422 58.6961 38.2191 58.3684 37.6668 57.4118C37.1145 56.4552 37.4422 55.232 38.3988 54.6797L47.3816 49.4935C47.5297 48.7229 48.0095 48.0702 48.6667 47.69V33.9998Z" fill="#434547"/>
<path d="M54 54.0002V35.3335C55.2268 35.3938 68.3798 40.0002 64.6667 54.0002C60.9535 68.0002 43.5025 66.7388 40.6667 62.0002L54 54.0002Z" fill="#A0DBDA"/>
<path fill-rule="evenodd" clip-rule="evenodd" d="M99 23.9222C99 26.8607 98.1506 29.6009 96.684 31.9105V42.7138C96.684 45.0232 94.184 46.4666 92.184 45.3119L84.3932 40.8139L76.6025 45.3119C74.6025 46.4666 72.1025 45.0232 72.1025 42.7138L72.1025 32.8268C70.2512 30.3412 69.1555 27.2597 69.1555 23.9222C69.1555 15.6809 75.8364 9 84.0777 9C92.3191 9 99 15.6809 99 23.9222Z" fill="#FFC401"/>
<path d="M73.3085 17.7043C71.6595 20.5605 71.2127 23.9547 72.0663 27.1404C72.9198 30.326 75.004 33.0421 77.8601 34.6911C80.7163 36.3401 84.1105 36.787 87.2962 35.9334C90.4818 35.0798 93.1979 32.9957 94.8469 30.1395L84.0777 23.9219L73.3085 17.7043Z" fill="#FDEC68"/>
<path d="M73.3085 17.7043C71.6595 20.5605 71.2127 23.9547 72.0663 27.1404C72.9198 30.326 75.004 33.0421 77.8601 34.6911C80.7163 36.3401 84.1105 36.787 87.2962 35.9334C90.4818 35.0798 93.1979 32.9957 94.8469 30.1395L84.0777 23.9219L73.3085 17.7043Z" fill="#FFD54A"/>
<path d="M88.4411 29.954C88.4411 30.0994 88.4123 30.2052 88.3546 30.2713C88.3114 30.3241 88.2105 30.3506 88.052 30.3506H80.1394C79.9808 30.3506 79.8727 30.3241 79.8151 30.2713C79.7718 30.2052 79.7502 30.0994 79.7502 29.954V28.3874C79.7502 28.2023 79.7718 28.0899 79.8151 28.0503C79.8727 28.0106 79.9808 27.9908 80.1394 27.9908H82.431V19.6622L80.1394 20.0191C79.9664 20.0456 79.8511 20.039 79.7935 19.9993C79.7358 19.9464 79.707 19.8473 79.707 19.7018V18.2542C79.707 18.1353 79.7214 18.0361 79.7502 17.9568C79.7935 17.8775 79.9088 17.8114 80.0961 17.7585L83.6849 16.8661C83.9299 16.8 84.1677 16.767 84.3983 16.767C84.6289 16.7538 84.8307 16.7868 85.0037 16.8661C85.1766 16.9322 85.3135 17.0446 85.4144 17.2033C85.5153 17.3619 85.5658 17.5668 85.5658 17.818V27.9908H88.052C88.2105 27.9908 88.3114 28.0106 88.3546 28.0503C88.4123 28.0899 88.4411 28.2023 88.4411 28.3874V29.954Z" fill="#DF8800"/>
</svg>
