<svg width="94" height="94" viewBox="0 0 94 94" fill="none" xmlns="http://www.w3.org/2000/svg">
<rect x="3.5" y="3.7002" width="86.7986" height="86.6122" rx="43.3061" fill="#FFC284" stroke="#653E40" stroke-width="7"/>
<rect y="0" width="94" height="94" rx="47" fill="#921C0C" fill-opacity="0.07"/>
<path d="M17.1883 73.2019C2.18834 23.2019 34.6883 6.70186 66.1882 12.2004C66.1882 12.2004 45.1884 -1.29834 22.6882 15.2004C0.187972 31.6992 5.18834 62.7019 17.1883 73.2019Z" fill="white" fill-opacity="0.26"/>
<path d="M20.7981 76.8117C70.7981 91.8117 87.2981 59.3117 81.7996 27.8118C81.7996 27.8118 95.2983 48.8116 78.7996 71.3118C62.3008 93.812 31.2981 88.8117 20.7981 76.8117Z" fill="black" fill-opacity="0.06"/>
<path d="M58.1231 53.8717C59.2923 55.0413 59.2923 56.9605 58.1231 58.1302C57.5234 58.7 56.7738 59 55.9943 59C55.2148 59 54.4652 58.7 53.8656 58.1302L47 51.2621L40.1344 58.1302C39.5348 58.7 38.7852 59 38.0057 59C37.2262 59 36.4766 58.7 35.8769 58.1302C34.7077 56.9605 34.7077 55.0413 35.8769 53.8717L42.7427 47.0037L35.8769 40.1357C34.7077 38.966 34.7077 37.0469 35.8769 35.8772C37.0462 34.7076 38.9651 34.7076 40.1344 35.8772L47 42.7452L53.8656 35.8772C55.0349 34.7076 56.9538 34.7076 58.1231 35.8772C59.2923 37.0469 59.2923 38.966 58.1231 40.1357L51.2573 47.0037L58.1231 53.8717Z" fill="#7C2121"/>
</svg>
