<svg width="180" height="120" viewBox="0 0 180 120" fill="none" xmlns="http://www.w3.org/2000/svg">
<path d="M90.3958 77.81C105.435 77.81 117.627 75.6217 117.627 72.9224V92.473C109.248 99.4554 68.7505 98.0589 63.1646 92.473V72.9224C63.1646 75.6217 75.3564 77.81 90.3958 77.81Z" fill="#904A16"/>
<path d="M117.627 72.9218C117.627 75.6212 105.435 77.8095 90.3958 77.8095C75.3564 77.8095 63.1646 75.6212 63.1646 72.9218C63.1646 70.2225 75.3564 68.0342 90.3958 68.0342C105.435 68.0342 117.627 70.2225 117.627 72.9218Z" fill="#B96421"/>
<ellipse cx="90.3962" cy="68.7319" rx="11.87" ry="3.49119" fill="#FFB204"/>
<path d="M99.473 68.0347C97.3783 70.8276 84.1118 70.8276 81.3188 68.0347C81.3188 66.6382 83.3612 61.0523 90.3959 61.0523C97.4307 61.0523 99.473 66.2392 99.473 68.0347Z" fill="#FFD96A"/>
<path d="M86.9048 53.3716H93.8872V64.5434C92.4907 65.9399 88.9995 65.9399 86.9048 64.5434V53.3716Z" fill="#FEB307"/>
<path d="M86.9048 52.6733H93.8872V63.8451C92.4907 65.2416 88.9995 65.2416 86.9048 63.8451V52.6733Z" fill="#FFD96A"/>
<path d="M99.473 48.4839H81.3188C81.3188 49.8804 83.3612 55.4663 90.3959 55.4663C97.4307 55.4663 99.473 50.2794 99.473 48.4839Z" fill="#FFD96A"/>
<path d="M50.5184 16.3647H63.1647L64.5612 19.8559H54.7646C54.4282 19.8559 54.1884 20.1833 54.2904 20.5039C58.2039 32.8018 64.7291 41.5493 74.3365 44.2943L80.6206 49.1819C69.6316 47.1215 57.0281 42.9641 49.5679 17.6457C49.3807 17.0105 49.8562 16.3647 50.5184 16.3647Z" fill="#FFD96A"/>
<path d="M68.7507 42.1997C71.1001 43.2945 72.3063 43.5475 74.3366 43.5962L80.6207 49.1821C77.6954 48.7599 76.0189 48.3222 72.9401 47.0874C70.4839 45.0106 68.0525 42.8979 68.7507 42.1997Z" fill="#FCB104"/>
<path d="M129.576 16.3647H116.929L115.533 19.8559H125.329C125.666 19.8559 125.906 20.1833 125.804 20.5039C121.89 32.8018 115.365 41.5493 105.757 44.2943L99.4734 49.1819C110.462 47.1215 123.066 42.9641 130.526 17.6457C130.713 17.0105 130.238 16.3647 129.576 16.3647Z" fill="#FFD96A"/>
<path d="M111.343 42.1997C108.994 43.2945 107.788 43.5475 105.757 43.5962L99.4733 49.1821C102.399 48.7599 104.075 48.3222 107.154 47.0874C109.61 45.0106 112.042 42.8979 111.343 42.1997Z" fill="#FCB104"/>
<path d="M78.5261 68.0343C82.0871 73.8176 101.079 72.0868 102.266 68.0342V72.0869C97.5182 76.4139 82.0871 75.5485 78.5261 72.087V68.0343Z" fill="#FFD96A"/>
<path d="M99.473 48.4839H81.3188C81.3188 50.5786 84.81 52.6733 90.3959 52.6733C95.9818 52.6733 99.473 51.2768 99.473 48.4839Z" fill="#FCB104"/>
<path d="M74.3364 79.9053C74.3364 79.9053 84.5272 81.3017 91.0941 81.3017C97.6611 81.3017 107.852 79.9053 107.852 79.9053V92.4735C94.613 94.6147 87.2738 94.6526 74.3364 92.4735V79.9053Z" fill="#FFB204"/>
<path d="M117.627 26.1396H61.7683C61.7683 31.167 68.0525 51.2762 89.6978 51.2762C111.343 51.2762 117.627 32.6033 117.627 26.1396Z" fill="#FFD96A"/>
<path d="M117.627 26.1396H61.7683C61.7683 26.7911 61.8406 27.6523 61.9964 28.6706C71.402 33.0097 105.587 34.6645 117.457 28.6706C117.573 27.7194 117.627 26.8658 117.627 26.1396Z" fill="#FFB204"/>
<path d="M58.9753 25.3574V7.90147C63.863 0.919369 117.627 0.221033 121.817 7.90147V25.3574C118.326 31.6418 67.3542 33.7366 58.9753 25.3574Z" fill="#FFD96A"/>
<ellipse cx="90.3958" cy="8.68307" rx="30.0242" ry="4.88766" fill="#E39F00"/>
<path d="M117.627 12.1758C114.311 13.3902 112.394 13.7666 108.938 14.2475L107.386 26.8234C110.253 26.4978 112.274 26.8234 115.533 25.4423L117.627 12.1758Z" fill="#FEF0C1"/>
<path d="M105.757 33.1229L115.533 31.7418C114.439 41.3775 103.064 48.5077 98.2531 49.1371C97.9713 49.2902 97.7502 49.3128 97.6111 49.1823C97.809 49.1823 98.0236 49.1671 98.2531 49.1371C100.367 47.9888 105.89 39.4978 105.757 33.1229Z" fill="#FEF0C1"/>
<path d="M97.6111 51.9906L94.5854 52.6735C93.8872 54.07 93.8872 53.3718 92.4907 55.4665C94.5854 54.07 95.9819 54.07 97.6111 51.9906Z" fill="#FEF0C1"/>
<path d="M93.2665 56.3259C92.4261 56.3475 91.966 56.4189 91.0942 56.3259V62.5409C91.888 62.8957 92.3716 62.8435 93.2665 62.5409V56.3259Z" fill="#FEF0C1"/>
<path d="M95.9819 68.733C96.3374 66.1484 96.9749 65.9698 95.2837 63.1471C97.5901 64.3083 97.5492 64.4776 98.6973 68.0424L95.9819 68.733Z" fill="#FEF0C1"/>
<path d="M29.3319 64.7998C40.1779 72.0669 46.8045 76.3935 60.0492 80.1584L42.5574 101.49L14.3999 84.4247L31.4651 81.0117L29.3319 64.7998Z" fill="#BC151F"/>
<path d="M60.476 80.1582H38.2913L42.9842 86.131L58.3428 87.8375L60.476 80.1582Z" fill="#9D0710"/>
<path d="M150.068 64.7998C139.222 72.0669 132.595 76.3935 119.351 80.1584L136.842 101.49L165 84.4247L147.935 81.0117L150.068 64.7998Z" fill="#BC151F"/>
<path d="M118.924 80.1582H141.109L136.416 86.131L121.057 87.8375L118.924 80.1582Z" fill="#9D0710"/>
<path d="M37.8645 80.1582C81.2413 97.0383 103.799 96.2335 141.535 80.1582L152.201 101.49C111.245 122.821 62.1823 121.115 27.1987 101.49L37.8645 80.1582Z" fill="#CF1D28"/>
</svg>
