<svg width="32" height="37" viewBox="0 0 32 37" fill="none" xmlns="http://www.w3.org/2000/svg">
<path fill-rule="evenodd" clip-rule="evenodd" d="M31.9999 14.9222C31.9999 17.8607 31.1506 20.6009 29.6839 22.9105V33.7138C29.6839 36.0232 27.1839 37.4666 25.1839 36.3119L17.3932 31.8139L9.60244 36.3119C7.60244 37.4666 5.10244 36.0232 5.10244 33.7138L5.10244 23.8268C3.25118 21.3412 2.15552 18.2597 2.15552 14.9222C2.15552 6.6809 8.83642 0 17.0777 0C25.319 0 31.9999 6.6809 31.9999 14.9222Z" fill="#FFC401"/>
<path d="M6.3085 8.70483C4.6595 11.561 4.21264 14.9552 5.06622 18.1409C5.91981 21.3265 8.00393 24.0426 10.8601 25.6916C13.7163 27.3406 17.1105 27.7875 20.2961 26.9339C23.4818 26.0803 26.1979 23.9962 27.8469 21.14L17.0777 14.9224L6.3085 8.70483Z" fill="#FDEC68"/>
<path d="M6.3085 8.70483C4.6595 11.561 4.21264 14.9552 5.06622 18.1409C5.91981 21.3265 8.00393 24.0426 10.8601 25.6916C13.7163 27.3406 17.1105 27.7875 20.2961 26.9339C23.4818 26.0803 26.1979 23.9962 27.8469 21.14L17.0777 14.9224L6.3085 8.70483Z" fill="#FFD54A"/>
<path d="M21.4412 20.9535C21.4412 21.0989 21.4123 21.2047 21.3547 21.2708C21.3114 21.3236 21.2106 21.3501 21.052 21.3501H13.1394C12.9809 21.3501 12.8728 21.3236 12.8151 21.2708C12.7719 21.2047 12.7503 21.0989 12.7503 20.9535V19.3869C12.7503 19.2018 12.7719 19.0895 12.8151 19.0498C12.8728 19.0101 12.9809 18.9903 13.1394 18.9903H15.431V10.6617L13.1394 11.0186C12.9665 11.0451 12.8512 11.0385 12.7935 10.9988C12.7359 10.9459 12.707 10.8468 12.707 10.7014V9.25376C12.707 9.13478 12.7214 9.03563 12.7503 8.95631C12.7935 8.87699 12.9088 8.81089 13.0962 8.75801L16.6849 7.86566C16.93 7.79956 17.1678 7.7665 17.3984 7.7665C17.629 7.75328 17.8308 7.78634 18.0037 7.86566C18.1767 7.93176 18.3136 8.04413 18.4145 8.20277C18.5154 8.36141 18.5658 8.56632 18.5658 8.8175V18.9903H21.052C21.2106 18.9903 21.3114 19.0101 21.3547 19.0498C21.4123 19.0895 21.4412 19.2018 21.4412 19.3869V20.9535Z" fill="#DF8800"/>
</svg>
