<svg width="100" height="100" viewBox="0 0 100 100" fill="none" xmlns="http://www.w3.org/2000/svg">
<circle cx="50" cy="50" r="40" fill="#747D9D"/>
<circle cx="43.5" cy="34.5" r="13.5" fill="#FDE180"/>
<circle cx="43.5" cy="34.5" r="13.5" fill="#2CC0BE"/>
<g clip-path="url(#clip0_301_18789)">
<path fill-rule="evenodd" clip-rule="evenodd" d="M65.9929 52.0156C66.6762 52.0156 67.3167 52.0156 68 52.0156C68 56.8644 68 61.7132 68 66.5198C67.3167 66.5198 66.6762 66.5198 65.9929 66.5198C65.9929 66.3933 65.9929 66.3089 65.9929 66.1824C65.9929 61.5445 65.9929 56.9487 65.9929 52.3108C65.9502 52.2264 65.9929 52.1 65.9929 52.0156Z" fill="black"/>
<path fill-rule="evenodd" clip-rule="evenodd" d="M46.6904 33C46.6904 33.6746 46.6904 34.3071 46.6904 34.9817C45.3238 34.9817 43.9573 34.9817 42.5907 34.9817C42.5907 34.3071 42.5907 33.6746 42.5907 33C43.9573 33 45.3238 33 46.6904 33Z" fill="black"/>
<path fill-rule="evenodd" clip-rule="evenodd" d="M63.9004 72.5068C63.9004 72.5912 63.9431 72.6755 63.9431 72.7598C63.9431 74.7836 63.9431 76.7653 63.9431 78.7891C63.9431 78.8735 63.9431 78.9156 63.9431 79C56.8541 79 49.7651 79 42.6762 79C42.6762 78.8735 42.6762 78.747 42.6762 78.6205C42.6762 76.7232 42.6762 74.7836 42.6762 72.8863C42.6762 72.7598 42.6762 72.6333 42.6335 72.5068C43.3167 72.5068 44 72.5068 44.726 72.5068C44.726 74.0247 44.726 75.5004 44.726 77.0183C50.3203 77.0183 55.8719 77.0183 61.4235 77.0183C61.4235 75.5004 61.4235 74.0247 61.4235 72.5068C62.2349 72.5068 63.089 72.5068 63.9004 72.5068Z" fill="black"/>
<path fill-rule="evenodd" clip-rule="evenodd" d="M38.5765 54.0392C39.2171 54.0392 39.9004 54.0392 40.5836 54.0392C40.5836 47.6726 40.5836 41.3481 40.5836 34.9814C41.2669 34.9814 41.9502 34.9814 42.5907 34.9814C42.5907 35.1079 42.6334 35.2344 42.6334 35.3609C42.6334 44.1308 42.6334 52.9008 42.6334 61.6707C42.6334 61.7972 42.6334 61.8815 42.6334 62.008C41.9502 62.008 41.2669 62.008 40.5836 62.008C40.5836 59.9842 40.5836 58.0447 40.5836 56.0209C39.9004 56.0209 39.2598 56.0209 38.5765 56.0209C38.5765 55.3462 38.5765 54.6716 38.5765 54.0392Z" fill="black"/>
<path fill-rule="evenodd" clip-rule="evenodd" d="M34.0071 58.0028C33.3665 58.0028 32.6833 58.0028 32 58.0028C32 56.0211 32 54.0395 32 52.0156C34.1779 52.0156 36.3559 52.0156 38.5765 52.0156C38.5765 52.6902 38.5765 53.3648 38.5765 54.0395C37.0391 54.0395 35.5445 54.0395 34.0071 54.0395C34.0071 54.2924 34.0071 54.5454 34.0071 54.7562C34.0071 55.8525 34.0071 56.9066 34.0071 58.0028Z" fill="black"/>
<path fill-rule="evenodd" clip-rule="evenodd" d="M65.9929 66.5197C65.9929 68.3749 65.9929 70.2722 65.9929 72.1274C65.9929 72.2539 65.9929 72.3804 65.9929 72.5069C65.2669 72.5069 64.5836 72.5069 63.9431 72.5069C63.9431 70.5252 63.9431 68.5014 63.9431 66.4775C64.669 66.5197 65.3096 66.5197 65.9929 66.5197Z" fill="black"/>
<path fill-rule="evenodd" clip-rule="evenodd" d="M38.5765 64.5381C37.7224 64.5381 36.911 64.5381 36.0569 64.5381C36.0569 64.496 36.0142 64.4538 36.0142 64.4117C36.0142 63.0203 36.0142 61.5867 36.0142 60.1953C36.0142 60.1532 36.0142 60.111 36.0142 60.0688C36.8683 60.0688 37.6797 60.0688 38.5338 60.0688C38.5765 61.5446 38.5765 63.0624 38.5765 64.5381Z" fill="black"/>
<path fill-rule="evenodd" clip-rule="evenodd" d="M40.5836 68.5438C39.9431 68.5438 39.2598 68.5438 38.5765 68.5438C38.5765 67.1945 38.5765 65.8453 38.5765 64.4961C39.2598 64.4961 39.9004 64.4961 40.5836 64.4961C40.5836 65.8875 40.5836 67.2367 40.5836 68.5438Z" fill="black"/>
<path fill-rule="evenodd" clip-rule="evenodd" d="M42.5908 72.5068C41.9502 72.5068 41.2669 72.5068 40.5836 72.5068C40.5836 71.1576 40.5836 69.8505 40.5836 68.5435C41.2669 68.5435 41.9502 68.5435 42.6335 68.5435C42.6335 69.5132 42.6335 70.483 42.6335 71.4527C42.6335 71.8322 42.5908 72.1695 42.5908 72.5068Z" fill="black"/>
<path fill-rule="evenodd" clip-rule="evenodd" d="M36.0569 60.0264C35.3737 60.0264 34.6904 60.0264 33.9644 60.0264C33.9644 59.3097 33.9644 58.6351 33.9644 57.9604C34.6477 57.9604 35.331 57.9604 36.0569 57.9604C36.0569 58.7194 36.0569 59.394 36.0569 60.0264Z" fill="black"/>
<path fill-rule="evenodd" clip-rule="evenodd" d="M46.6904 34.9814C47.3737 34.9814 48.0142 34.9814 48.7402 34.9814C48.7402 37.8485 48.7402 40.6313 48.7402 43.4984C50.2776 43.4984 51.7722 43.4984 53.3096 43.4984C53.3096 44.2152 53.3096 44.8898 53.3096 45.5644C51.7722 45.5644 50.2776 45.5644 48.6975 45.5644C48.6975 48.3893 48.6975 51.2143 48.6975 54.0392C48.0142 54.0392 47.3737 54.0392 46.6904 54.0392C46.6904 47.6304 46.6904 41.3059 46.6904 34.9814Z" fill="black"/>
<path fill-rule="evenodd" clip-rule="evenodd" d="M53.2669 45.5226C53.395 45.5226 53.4804 45.4805 53.5658 45.4805C55.3594 45.4805 57.1957 45.4805 58.9893 45.4805C59.0747 45.4805 59.2028 45.4805 59.331 45.4805C59.331 46.1551 59.331 46.8297 59.331 47.4621C57.9644 47.4621 56.6406 47.4621 55.2313 47.4621C55.2313 49.6546 55.2313 51.8049 55.2313 53.9553C54.548 53.9553 53.9075 53.9553 53.2242 53.9553C53.3096 51.1725 53.3096 48.3476 53.2669 45.5226Z" fill="black"/>
<path fill-rule="evenodd" clip-rule="evenodd" d="M59.3737 47.5039C60.8683 47.5039 62.363 47.5039 63.9003 47.5039C63.9003 48.1785 63.9003 48.811 63.9003 49.4856C63.0463 49.4856 62.2349 49.4856 61.3808 49.4856C61.3808 51.7202 61.3808 53.8284 61.3808 55.9787C60.6975 55.9787 60.0569 55.9787 59.3737 55.9787C59.3737 53.1538 59.3737 50.3288 59.3737 47.5039Z" fill="black"/>
<path fill-rule="evenodd" clip-rule="evenodd" d="M63.9004 49.4858C64.5836 49.4858 65.2669 49.4858 65.9929 49.4858C65.9929 50.3291 65.9929 51.1724 65.9929 51.9735C65.3096 51.9735 64.6263 51.9735 63.9004 51.9735C63.9004 51.1302 63.9004 50.3291 63.9004 49.4858Z" fill="black"/>
<path fill-rule="evenodd" clip-rule="evenodd" d="M63.9004 49.4856C63.9004 50.3288 63.9004 51.1299 63.9004 51.9732C64.6263 51.9732 65.3096 51.9732 65.9929 51.9732C65.9929 52.0997 65.9929 52.2262 65.9929 52.3105C65.9929 56.9484 65.9929 61.5442 65.9929 66.1822C65.9929 66.3087 65.9929 66.393 65.9929 66.5195C65.3096 66.5195 64.669 66.5195 63.9004 66.5195C63.9004 68.5433 63.9004 70.525 63.9004 72.5488C63.089 72.5488 62.2349 72.5488 61.3808 72.5488C61.3808 74.0667 61.3808 75.5424 61.3808 77.0603C55.7865 77.0603 50.2349 77.0603 44.6833 77.0603C44.6833 75.5846 44.6833 74.1089 44.6833 72.5488C43.9573 72.5488 43.274 72.5488 42.5908 72.5488C42.5908 72.2115 42.6335 71.832 42.6335 71.4947C42.6335 70.525 42.6335 69.5552 42.6335 68.5855C41.9502 68.5855 41.2669 68.5855 40.5836 68.5855C40.5836 67.2363 40.5836 65.9292 40.5836 64.5378C39.9004 64.5378 39.2598 64.5378 38.5765 64.5378C38.5765 63.0621 38.5765 61.5864 38.5765 60.0685C37.7224 60.0685 36.8683 60.0685 36.0569 60.0685C36.0569 59.3939 36.0569 58.7193 36.0569 58.0025C35.331 58.0025 34.6477 58.0025 33.9644 58.0025C33.9644 56.9063 33.9644 55.8522 33.9644 54.756C33.9644 54.5451 33.9644 54.2922 33.9644 54.0392C35.5018 54.0392 37.0391 54.0392 38.5338 54.0392C38.5338 54.6716 38.5338 55.3462 38.5338 56.0209C39.2171 56.0209 39.8577 56.0209 40.5409 56.0209C40.5409 58.0447 40.5409 60.0264 40.5409 62.008C41.2242 62.008 41.9075 62.008 42.5908 62.008C42.5908 61.8815 42.5908 61.7972 42.5908 61.6707C42.5908 52.9008 42.5908 44.1308 42.5908 35.3609C42.5908 35.2344 42.548 35.1079 42.548 34.9814C43.9146 34.9814 45.2811 34.9814 46.6477 34.9814C46.6477 41.3059 46.6477 47.6304 46.6477 53.997C47.331 53.997 47.9715 53.997 48.6548 53.997C48.6548 51.1721 48.6548 48.3472 48.6548 45.5222C50.1922 45.5222 51.7295 45.5222 53.2669 45.5222C53.2669 48.3472 53.2669 51.1721 53.2669 53.997C53.9502 53.997 54.5908 53.997 55.274 53.997C55.274 51.8467 55.274 49.6964 55.274 47.5039C56.6406 47.5039 58.0071 47.5039 59.3737 47.5039C59.3737 50.3288 59.3737 53.1538 59.3737 55.9787C60.0142 55.9787 60.6975 55.9787 61.3808 55.9787C61.3808 53.8284 61.3808 51.6781 61.3808 49.4856C62.2349 49.4856 63.089 49.4856 63.9004 49.4856Z" fill="white"/>
</g>
<defs>
<clipPath id="clip0_301_18789">
<rect width="36" height="46" fill="white" transform="translate(32 33)"/>
</clipPath>
</defs>
</svg>
