<svg width="40" height="40" viewBox="0 0 40 40" fill="none" xmlns="http://www.w3.org/2000/svg">
<path fill-rule="evenodd" clip-rule="evenodd" d="M34 16.7433C34 19.6818 33.1506 22.4219 31.684 24.7315V35.5345C31.684 37.8439 29.184 39.2873 27.184 38.1326L19.3933 33.6346L11.6025 38.1326C9.60251 39.2873 7.10251 37.8439 7.10251 35.5345L7.10251 25.6479C5.25125 23.1623 4.15558 20.0807 4.15558 16.7433C4.15558 8.50195 10.8365 1.82104 19.0778 1.82104C27.3191 1.82104 34 8.50195 34 16.7433Z" fill="#ABC1D6"/>
<path d="M8.30857 10.5254C6.65956 13.3815 6.2127 16.7758 7.06629 19.9614C7.91987 23.1471 10.004 25.8631 12.8602 27.5121C15.7163 29.1612 19.1106 29.608 22.2962 28.7544C25.4818 27.9008 28.1979 25.8167 29.8469 22.9606L19.0777 16.743L8.30857 10.5254Z" fill="#C6D5E2"/>
<path d="M24.3479 21.8034C24.3479 21.9491 24.3196 22.055 24.2631 22.1212C24.2206 22.1742 24.1216 22.2007 23.9659 22.2007H15.6678C15.0453 22.2007 14.5643 22.0815 14.2247 21.8431C13.8993 21.5915 13.7366 21.095 13.7366 20.3534C13.7366 19.8634 13.9134 19.3338 14.2671 18.7643C14.635 18.1949 15.1302 17.6321 15.7527 17.076C16.3328 16.5463 16.9341 16.0762 17.5567 15.6657C18.1792 15.2552 18.7239 14.9109 19.1908 14.6328C19.6011 14.3944 19.9336 14.1826 20.1883 13.9972C20.4571 13.7985 20.6623 13.6198 20.8037 13.4609C20.9594 13.2887 21.0655 13.1232 21.1221 12.9643C21.1787 12.8054 21.207 12.6332 21.207 12.4479C21.207 12.2889 21.1716 12.13 21.1009 11.9711C21.0301 11.8122 20.9169 11.6732 20.7613 11.554C20.6057 11.4348 20.3934 11.3355 20.1246 11.2561C19.8699 11.1766 19.5445 11.1369 19.1484 11.1369C18.6107 11.1369 18.066 11.223 17.5142 11.3951C16.9766 11.554 16.4177 11.8122 15.8376 12.1698C15.7244 12.236 15.6183 12.2691 15.5193 12.2691C15.4202 12.2691 15.3283 12.2161 15.2434 12.1102L14.2671 10.7198C14.1257 10.5079 14.154 10.3357 14.352 10.2033C15.8659 9.14394 17.5496 8.61426 19.403 8.61426C20.1105 8.61426 20.7684 8.69371 21.3768 8.85262C21.9851 8.99828 22.5157 9.23002 22.9685 9.54783C23.4212 9.8524 23.7749 10.2364 24.0296 10.6999C24.2843 11.1634 24.4116 11.7063 24.4116 12.3287C24.4116 12.8186 24.3267 13.2689 24.1569 13.6794C23.9872 14.0766 23.7466 14.4474 23.4354 14.7917C23.1241 15.1228 22.7562 15.4339 22.3318 15.7253C21.9215 16.0034 21.4616 16.2814 20.9523 16.5595C20.5986 16.7449 20.2378 16.9634 19.8699 17.215C19.5021 17.4534 19.1484 17.7116 18.8088 17.9897C18.4834 18.2678 18.1792 18.5657 17.8962 18.8835C17.6274 19.1881 17.4223 19.5059 17.2808 19.837H23.9659C24.1216 19.837 24.2206 19.8568 24.2631 19.8965C24.3196 19.9363 24.3479 20.0488 24.3479 20.2342V21.8034Z" fill="#869EB0"/>
</svg>
