<svg width="40" height="40" viewBox="0 0 40 40" fill="none" xmlns="http://www.w3.org/2000/svg">
<path fill-rule="evenodd" clip-rule="evenodd" d="M34.0001 16.9222C34.0001 19.8607 33.1507 22.6009 31.684 24.9105V35.7136C31.684 38.023 29.184 39.4664 27.184 38.3117L19.3933 33.8137L11.6025 38.3117C9.60254 39.4664 7.10254 38.023 7.10254 35.7136L7.10254 25.8268C5.2513 23.3412 4.15564 20.2597 4.15564 16.9222C4.15564 8.6809 10.8365 2 19.0779 2C27.3192 2 34.0001 8.6809 34.0001 16.9222Z" fill="#DB9756"/>
<path d="M8.30857 10.7029C6.65956 13.559 6.2127 16.9533 7.06629 20.1389C7.91987 23.3246 10.004 26.0406 12.8602 27.6896C15.7163 29.3386 19.1106 29.7855 22.2962 28.9319C25.4818 28.0783 28.1979 25.9942 29.8469 23.138L19.0777 16.9205L8.30857 10.7029Z" fill="#EAB582"/>
<path d="M22.5908 15.7049C23.5822 15.9422 24.2915 16.3681 24.7186 16.9825C25.1609 17.5829 25.3821 18.2392 25.3821 18.9514C25.3821 19.6216 25.2295 20.229 24.9245 20.7736C24.6347 21.3182 24.2229 21.7859 23.689 22.1769C23.1704 22.5539 22.5374 22.8472 21.79 23.0566C21.0427 23.2521 20.2266 23.3498 19.342 23.3498C18.2743 23.3498 17.2905 23.2381 16.3906 23.0147C15.4906 22.7913 14.6746 22.4143 13.9425 21.8837C13.8205 21.772 13.7518 21.6882 13.7366 21.6323C13.7366 21.5625 13.7747 21.4648 13.851 21.3391L14.8577 19.8311C14.9644 19.6775 15.0636 19.5937 15.1551 19.5797C15.2619 19.5518 15.4144 19.5937 15.6127 19.7054C16.1618 20.0684 16.749 20.3268 17.3744 20.4804C17.9997 20.62 18.5793 20.6898 19.1132 20.6898C20.0283 20.6898 20.7223 20.5013 21.1952 20.1243C21.6833 19.7333 21.9273 19.2027 21.9273 18.5325C21.9273 18.0856 21.729 17.6947 21.3325 17.3595C20.9359 17.0104 20.3181 16.8359 19.4792 16.8359H18.8844C18.5183 16.8359 18.2895 16.794 18.198 16.7102C18.1065 16.6265 18.0607 16.4379 18.0607 16.1447V15.3069C18.0607 14.9857 18.0989 14.7833 18.1751 14.6995C18.2666 14.6018 18.4421 14.5529 18.7014 14.5529H19.3648C20.0817 14.5529 20.6308 14.3993 21.0121 14.0921C21.4087 13.7849 21.607 13.3939 21.607 12.9192C21.607 12.6539 21.546 12.4304 21.424 12.2489C21.302 12.0674 21.1342 11.9208 20.9206 11.8091C20.7223 11.6974 20.4936 11.6136 20.2343 11.5577C19.975 11.5019 19.708 11.4739 19.4335 11.4739C18.8996 11.4739 18.32 11.5507 17.6947 11.7043C17.0846 11.8579 16.5202 12.0953 16.0016 12.4165C15.8033 12.5282 15.6508 12.5771 15.544 12.5631C15.4525 12.5491 15.361 12.4653 15.2695 12.3118L14.3543 10.9084C14.2628 10.7828 14.217 10.685 14.217 10.6152C14.217 10.5314 14.278 10.4407 14.4001 10.3429C14.7661 10.0776 15.1627 9.84721 15.5898 9.65172C16.0321 9.45623 16.4821 9.29565 16.9397 9.16998C17.4125 9.04431 17.8853 8.95355 18.3582 8.89769C18.831 8.82788 19.2886 8.79297 19.7309 8.79297C20.4173 8.79297 21.0732 8.86279 21.6985 9.00242C22.3391 9.12809 22.9035 9.33754 23.3916 9.63077C23.8797 9.92401 24.2686 10.308 24.5584 10.7828C24.8482 11.2435 24.9931 11.8021 24.9931 12.4584C24.9931 12.7935 24.9321 13.1216 24.8101 13.4428C24.7033 13.7639 24.5432 14.0642 24.3296 14.3434C24.1161 14.6227 23.8568 14.874 23.5517 15.0975C23.2619 15.3069 22.9416 15.4745 22.5908 15.6001V15.7049Z" fill="#915F30"/>
</svg>
