<svg width="40" height="40" viewBox="0 0 40 40" fill="none" xmlns="http://www.w3.org/2000/svg">
<path fill-rule="evenodd" clip-rule="evenodd" d="M33.9999 16.9225C33.9999 19.861 33.1506 22.6011 31.6839 24.9107V35.7141C31.6839 38.0235 29.1839 39.4669 27.1839 38.3122L19.3932 33.8142L11.6024 38.3122C9.60244 39.4669 7.10244 38.0235 7.10244 35.7141L7.10244 25.8271C5.25118 23.3415 4.15552 20.2599 4.15552 16.9225C4.15552 8.68115 10.8364 2.00024 19.0777 2.00024C27.319 2.00024 33.9999 8.68115 33.9999 16.9225Z" fill="#FFC401"/>
<path d="M8.3085 10.7046C6.6595 13.5607 6.21264 16.955 7.06622 20.1406C7.91981 23.3263 10.0039 26.0423 12.8601 27.6913C15.7163 29.3404 19.1105 29.7872 22.2961 28.9336C25.4818 28.08 28.1979 25.9959 29.8469 23.1398L19.0777 16.9222L8.3085 10.7046Z" fill="#FDEC68"/>
<path d="M8.3085 10.7046C6.6595 13.5607 6.21264 16.955 7.06622 20.1406C7.91981 23.3263 10.0039 26.0423 12.8601 27.6913C15.7163 29.3404 19.1105 29.7872 22.2961 28.9336C25.4818 28.08 28.1979 25.9959 29.8469 23.1398L19.0777 16.9222L8.3085 10.7046Z" fill="#FFD54A"/>
<path d="M23.4411 22.954C23.4411 23.0994 23.4123 23.2052 23.3546 23.2713C23.3114 23.3241 23.2105 23.3506 23.0519 23.3506H15.1394C14.9808 23.3506 14.8727 23.3241 14.8151 23.2713C14.7718 23.2052 14.7502 23.0994 14.7502 22.954V21.3874C14.7502 21.2023 14.7718 21.0899 14.8151 21.0503C14.8727 21.0106 14.9808 20.9908 15.1394 20.9908H17.431V12.6622L15.1394 13.0191C14.9664 13.0456 14.8511 13.039 14.7934 12.9993C14.7358 12.9464 14.707 12.8473 14.707 12.7018V11.2542C14.707 11.1353 14.7214 11.0361 14.7502 10.9568C14.7934 10.8775 14.9087 10.8114 15.0961 10.7585L18.6849 9.86614C18.9299 9.80004 19.1677 9.76699 19.3983 9.76699C19.6289 9.75377 19.8307 9.78682 20.0037 9.86614C20.1766 9.93224 20.3135 10.0446 20.4144 10.2033C20.5153 10.3619 20.5658 10.5668 20.5658 10.818V20.9908H23.0519C23.2105 20.9908 23.3114 21.0106 23.3546 21.0503C23.4123 21.0899 23.4411 21.2023 23.4411 21.3874V22.954Z" fill="#DF8800"/>
</svg>
