<svg width="46" height="46" viewBox="0 0 46 46" fill="none" xmlns="http://www.w3.org/2000/svg">
<path d="M28.75 4.79199H17.25C10.3883 4.79199 4.79166 10.3887 4.79166 17.2503V28.7503C4.79166 35.612 10.3883 41.2087 17.25 41.2087H28.75C35.6117 41.2087 41.2083 35.612 41.2083 28.7503V17.2503C41.2083 10.3887 35.6117 4.79199 28.75 4.79199ZM30.6667 24.917H24.9167V30.667C24.9167 31.7212 24.0542 32.5837 23 32.5837C21.9458 32.5837 21.0833 31.7212 21.0833 30.667V24.917H15.3333C14.2792 24.917 13.4167 24.0545 13.4167 23.0003C13.4167 21.9462 14.2792 21.0837 15.3333 21.0837H21.0833V15.3337C21.0833 14.2795 21.9458 13.417 23 13.417C24.0542 13.417 24.9167 14.2795 24.9167 15.3337V21.0837H30.6667C31.7208 21.0837 32.5833 21.9462 32.5833 23.0003C32.5833 24.0545 31.7208 24.917 30.6667 24.917Z" fill="#9595AD"/>
</svg>
