<svg width="46" height="46" viewBox="0 0 46 46" fill="none" xmlns="http://www.w3.org/2000/svg">
<path d="M28.75 4.7915H17.25C10.3883 4.7915 4.79166 10.3882 4.79166 17.2498V28.7498C4.79166 35.6115 10.3883 41.2082 17.25 41.2082H28.75C35.6117 41.2082 41.2083 35.6115 41.2083 28.7498V17.2498C41.2083 10.3882 35.6117 4.7915 28.75 4.7915ZM30.6667 24.9165H24.9167V30.6665C24.9167 31.7207 24.0542 32.5832 23 32.5832C21.9458 32.5832 21.0833 31.7207 21.0833 30.6665V24.9165H15.3333C14.2792 24.9165 13.4167 24.054 13.4167 22.9998C13.4167 21.9457 14.2792 21.0832 15.3333 21.0832H21.0833V15.3332C21.0833 14.279 21.9458 13.4165 23 13.4165C24.0542 13.4165 24.9167 14.279 24.9167 15.3332V21.0832H30.6667C31.7208 21.0832 32.5833 21.9457 32.5833 22.9998C32.5833 24.054 31.7208 24.9165 30.6667 24.9165Z" fill="#653E40"/>
</svg>
