<svg width="267" height="84" viewBox="0 0 267 84" fill="none" xmlns="http://www.w3.org/2000/svg">
<path d="M0 26.069C0 11.6715 11.6941 0 26.1196 0H240.88C255.306 0 267 11.6715 267 26.069V57.931C267 72.3285 255.306 84 240.88 84H26.1196C11.6941 84 0 72.3285 0 57.931V26.069Z" fill="#653E40"/>
<path d="M9 37.7073C9 27.3756 17.4259 19 27.8198 19H239.18C249.574 19 258 27.3756 258 37.7073V59.2927C258 69.6245 249.574 78 239.18 78H27.8198C17.4259 78 9 69.6245 9 59.2927V37.7073Z" fill="#E7891F"/>
<path d="M9 26.0244C9 15.5175 17.4259 7 27.8198 7H239.18C249.574 7 258 15.5175 258 26.0244V47.9756C258 58.4825 249.574 67 239.18 67H27.8198C17.4259 67 9 58.4825 9 47.9756V26.0244Z" fill="#FFE5CB"/>
<path d="M9 33.1463C9 22.0198 18.074 13 29.2674 13H237.733C248.926 13 258 22.0198 258 33.1463V51.8537C258 62.9802 248.926 72 237.733 72H29.2674C18.074 72 9 62.9802 9 51.8537V33.1463Z" fill="#FFC284"/>
<path d="M98.024 29C99.1334 29 100.22 29.1187 101.283 29.3562C102.346 29.5699 103.282 29.9379 104.091 30.4603C104.9 30.9826 105.547 31.6594 106.033 32.4904C106.541 33.2977 106.796 34.3068 106.796 35.5178C106.796 36.6575 106.472 37.726 105.825 38.7233C105.178 39.6968 104.299 40.4447 103.19 40.9671V41.1452C104.507 41.5489 105.547 42.2731 106.31 43.3178C107.073 44.3626 107.454 45.526 107.454 46.8082C107.454 48.0429 107.188 49.147 106.657 50.1205C106.148 51.0941 105.443 51.9251 104.542 52.6137C103.641 53.2785 102.577 53.8009 101.352 54.1808C100.127 54.537 98.8214 54.7269 97.4346 54.7507C96.7643 54.7507 96.0362 54.7151 95.2504 54.6438C94.4645 54.5726 93.6671 54.4658 92.8581 54.3233C92.0492 54.1571 91.2518 53.9434 90.4659 53.6822C89.7032 53.421 89.0098 53.0886 88.3857 52.6849C88.1777 52.5425 88.0506 52.4 88.0043 52.2575C87.9812 52.0913 88.0506 51.842 88.2124 51.5096L89.4605 48.9808C89.576 48.7196 89.7032 48.5534 89.8418 48.4822C89.9805 48.3872 90.2232 48.411 90.5699 48.5534C90.986 48.7434 91.4482 48.9215 91.9567 49.0877C92.4652 49.2539 92.9968 49.4082 93.5515 49.5507C94.1063 49.6694 94.661 49.7763 95.2157 49.8712C95.7935 49.9425 96.3483 49.9781 96.8799 49.9781C98.5903 49.9781 99.8499 49.6457 100.659 48.9808C101.491 48.2922 101.907 47.4018 101.907 46.3096C101.907 45.5023 101.572 44.8137 100.902 44.2438C100.231 43.6502 99.1219 43.3297 97.5733 43.2822H95.9091C95.4237 43.2822 95.0655 43.211 94.8343 43.0685C94.6263 42.926 94.5223 42.5817 94.5223 42.0356V40.4685C94.5223 39.9936 94.6032 39.6493 94.765 39.4356C94.9499 39.2219 95.2735 39.1151 95.7358 39.1151H97.6773C98.8561 39.0913 99.7459 38.8301 100.347 38.3315C100.971 37.8091 101.283 37.1205 101.283 36.2658C101.283 35.3872 100.925 34.758 100.208 34.3781C99.4917 33.9744 98.6018 33.7726 97.5386 33.7726C96.5447 33.7726 95.5509 33.8913 94.557 34.1288C93.5631 34.3662 92.6386 34.6511 91.7834 34.9836C91.3904 35.126 91.1246 35.1616 90.986 35.0904C90.8473 34.9954 90.7202 34.7817 90.6046 34.4493L89.7032 32.1342C89.5183 31.7306 89.4374 31.4694 89.4605 31.3507C89.5067 31.2082 89.6685 31.042 89.9459 30.8521C90.986 30.2347 92.2341 29.7717 93.6902 29.463C95.1464 29.1543 96.591 29 98.024 29Z" fill="#7C2121"/>
<path d="M127.007 40.7178C127.654 40.979 128.208 41.3352 128.671 41.7863C129.156 42.2137 129.549 42.7005 129.85 43.2466C130.15 43.7689 130.37 44.3388 130.508 44.9562C130.647 45.5735 130.716 46.179 130.716 46.7726C130.716 47.9123 130.497 48.9452 130.058 49.8712C129.641 50.7973 129.052 51.5927 128.289 52.2575C127.55 52.9224 126.671 53.4447 125.654 53.8247C124.661 54.1808 123.586 54.3589 122.43 54.3589H113.728C112.896 54.3589 112.341 54.1927 112.064 53.8603C111.786 53.5041 111.648 52.9461 111.648 52.1863V31.6C111.648 30.8402 111.786 30.2822 112.064 29.926C112.341 29.5699 112.896 29.3918 113.728 29.3918H122.222C123.262 29.3918 124.233 29.5105 125.134 29.7479C126.059 29.9854 126.856 30.3653 127.527 30.8877C128.197 31.3863 128.717 32.0393 129.087 32.8466C129.48 33.6301 129.676 34.5799 129.676 35.6959C129.676 36.6932 129.422 37.631 128.913 38.5096C128.428 39.3644 127.792 40.0174 127.007 40.4685V40.7178ZM125.273 46.4164C125.273 45.4667 124.984 44.695 124.406 44.1014C123.852 43.5078 123.02 43.211 121.91 43.211H116.918V49.5863H121.91C122.557 49.5863 123.1 49.4913 123.54 49.3014C123.979 49.0877 124.325 48.8265 124.58 48.5178C124.834 48.2091 125.007 47.8648 125.1 47.4849C125.215 47.105 125.273 46.7489 125.273 46.4164ZM116.918 38.8658H121.633C121.91 38.8658 122.199 38.8301 122.499 38.7589C122.823 38.6877 123.112 38.5689 123.366 38.4027C123.62 38.2128 123.828 37.9635 123.99 37.6548C124.152 37.3224 124.233 36.9068 124.233 36.4082C124.233 35.6959 124.013 35.1379 123.574 34.7342C123.135 34.3306 122.546 34.1288 121.806 34.1288H116.918V38.8658Z" fill="#7C2121"/>
<path d="M152.825 29.3205C153.264 29.3205 153.403 29.5224 153.241 29.926L146.134 50.1918C145.81 51.0941 145.44 51.8539 145.024 52.4712C144.631 53.0886 144.157 53.5872 143.603 53.9671C143.071 54.3233 142.459 54.5845 141.765 54.7507C141.072 54.9169 140.274 55 139.373 55C138.911 55 138.391 54.9644 137.813 54.8932C137.235 54.8219 136.646 54.6913 136.045 54.5014C135.744 54.4064 135.548 54.3233 135.455 54.2521C135.386 54.1571 135.374 53.979 135.421 53.7178L135.975 50.7616C136.022 50.5005 136.102 50.358 136.218 50.3342C136.334 50.3105 136.518 50.3224 136.773 50.3699C137.166 50.4174 137.501 50.453 137.778 50.4767C138.079 50.5005 138.379 50.5123 138.68 50.5123C139.072 50.5123 139.408 50.5005 139.685 50.4767C139.985 50.4292 140.251 50.3461 140.482 50.2274C140.714 50.0849 140.91 49.9068 141.072 49.6931C141.234 49.4557 141.384 49.1352 141.522 48.7315L142.077 47.1288H141.176C140.621 47.1288 140.217 47.0338 139.962 46.8438C139.731 46.6539 139.489 46.2384 139.234 45.5973L133.132 29.9973C133.017 29.7598 133.017 29.5936 133.132 29.4986C133.248 29.3799 133.41 29.3205 133.618 29.3205H137.639C138.032 29.3205 138.298 29.368 138.437 29.463C138.576 29.558 138.691 29.7479 138.784 30.0329L141.349 37.263L143.291 43.1397H143.533L145.371 36.9781L147.555 30.0685C147.671 29.7598 147.786 29.558 147.902 29.463C148.017 29.368 148.26 29.3205 148.63 29.3205H152.825Z" fill="#7C2121"/>
<path d="M170.314 41.074C170.915 41.2877 171.412 41.537 171.805 41.8219C172.198 42.0831 172.521 42.3918 172.776 42.7479C173.03 43.1041 173.226 43.5078 173.365 43.9589C173.527 44.3863 173.677 44.8612 173.816 45.3836L175.965 53.6466C176.012 53.7653 176.012 53.9196 175.965 54.1096C175.942 54.2758 175.78 54.3589 175.48 54.3589H171.458C171.343 54.3589 171.216 54.3352 171.077 54.2877C170.938 54.2402 170.834 54.0977 170.765 53.8603L168.65 46.2027C168.465 45.5854 168.245 45.0868 167.991 44.7068C167.76 44.3032 167.471 43.9945 167.124 43.7808C166.778 43.5671 166.373 43.4247 165.911 43.3534C165.449 43.2584 164.917 43.211 164.316 43.211H161.473L161.508 53.789C161.508 54.0502 161.462 54.2164 161.369 54.2877C161.277 54.3352 161.115 54.3589 160.884 54.3589H156.862C156.654 54.3589 156.492 54.3352 156.377 54.2877C156.284 54.2164 156.238 54.0502 156.238 53.789V29.9973C156.238 29.7361 156.284 29.5817 156.377 29.5342C156.492 29.463 156.654 29.4274 156.862 29.4274H160.919C161.15 29.4274 161.311 29.463 161.404 29.5342C161.496 29.5817 161.519 29.7361 161.473 29.9973V39.0795H164.247C164.594 39.0795 164.952 39.0557 165.322 39.0082C165.715 38.937 166.096 38.7945 166.466 38.5808C166.836 38.3671 167.171 38.0466 167.471 37.6192C167.795 37.1918 168.049 36.61 168.234 35.874L169.794 29.8548C169.84 29.6174 169.933 29.4749 170.071 29.4274C170.233 29.3799 170.372 29.3562 170.487 29.3562H174.371C174.671 29.3562 174.833 29.4511 174.856 29.6411C174.902 29.8073 174.902 29.9498 174.856 30.0685L173.261 36.4438C172.799 38.4858 171.816 39.9699 170.314 40.8959V41.074Z" fill="#7C2121"/>
</svg>
