<svg width="100" height="100" viewBox="0 0 100 100" fill="none" xmlns="http://www.w3.org/2000/svg">
<circle cx="50" cy="50" r="40" fill="#747D9D"/>
<circle cx="49.9999" cy="48.6667" r="26.6667" fill="#E0FCF9"/>
<path d="M76.6666 52.6667C76.6666 67.3943 64.7275 79.3333 49.9999 79.3333C35.2723 79.3333 23.3333 67.3943 23.3333 52.6667C23.3333 37.9391 35.2723 26 49.9999 26C64.7275 26 76.6666 37.9391 76.6666 52.6667ZM28.6825 52.6667C28.6825 64.44 38.2266 73.9841 49.9999 73.9841C61.7732 73.9841 71.3174 64.44 71.3174 52.6667C71.3174 40.8934 61.7732 31.3492 49.9999 31.3492C38.2266 31.3492 28.6825 40.8934 28.6825 52.6667Z" fill="black" fill-opacity="0.1"/>
<path d="M76.6666 48.6667C76.6666 63.3943 64.7275 75.3333 49.9999 75.3333C35.2723 75.3333 23.3333 63.3943 23.3333 48.6667C23.3333 33.9391 35.2723 22 49.9999 22C64.7275 22 76.6666 33.9391 76.6666 48.6667ZM28.6825 48.6667C28.6825 60.44 38.2266 69.9841 49.9999 69.9841C61.7732 69.9841 71.3174 60.44 71.3174 48.6667C71.3174 36.8934 61.7732 27.3492 49.9999 27.3492C38.2266 27.3492 28.6825 36.8934 28.6825 48.6667Z" fill="#2CC0BE"/>
<path fill-rule="evenodd" clip-rule="evenodd" d="M48.6667 35.3333C48.6667 34.597 49.2637 34 50.0001 34C50.7364 34 51.3334 34.597 51.3334 35.3333V49.0232C52.1306 49.4843 52.6669 50.3461 52.6669 51.3333C52.6669 52.806 51.473 53.9999 50.0003 53.9999C49.9633 53.9999 49.9265 53.9992 49.8898 53.9977L40.3988 59.4773C39.4422 60.0296 38.2191 59.7019 37.6668 58.7453C37.1145 57.7887 37.4422 56.5655 38.3988 56.0132L47.3816 50.827C47.5297 50.0564 48.0096 49.4037 48.6667 49.0235V35.3333Z" fill="#A0DBDA"/>
<path fill-rule="evenodd" clip-rule="evenodd" d="M48.6667 33.9998C48.6667 33.2635 49.2637 32.6665 50.0001 32.6665C50.7364 32.6665 51.3334 33.2635 51.3334 33.9998V47.6897C52.1306 48.1508 52.6669 49.0126 52.6669 49.9998C52.6669 51.4725 51.473 52.6664 50.0003 52.6664C49.9633 52.6664 49.9265 52.6657 49.8898 52.6642L40.3988 58.1438C39.4422 58.6961 38.2191 58.3684 37.6668 57.4118C37.1145 56.4552 37.4422 55.232 38.3988 54.6797L47.3816 49.4935C47.5297 48.7229 48.0096 48.0702 48.6667 47.69V33.9998Z" fill="#434547"/>
<path d="M54 54.0002V35.3335C55.2269 35.3938 68.3798 40.0002 64.6667 54.0002C60.9536 68.0002 43.5025 66.7388 40.6667 62.0002L54 54.0002Z" fill="#A0DBDA"/>
</svg>
