<svg width="283" height="84" viewBox="0 0 283 84" fill="none" xmlns="http://www.w3.org/2000/svg">
<path d="M0 26.069C0 11.6715 12.3949 0 27.6848 0H255.315C270.605 0 283 11.6715 283 26.069V57.931C283 72.3285 270.605 84 255.315 84H27.6848C12.3949 84 0 72.3285 0 57.931V26.069Z" fill="#653E40"/>
<path d="M9 37.7073C9 27.3756 17.9673 19 29.0291 19H253.971C265.033 19 274 27.3756 274 37.7073V59.2927C274 69.6245 265.033 78 253.971 78H29.0291C17.9673 78 9 69.6245 9 59.2927V37.7073Z" fill="#E7891F"/>
<path d="M9 26.0244C9 15.5175 17.9673 7 29.0291 7H253.971C265.033 7 274 15.5175 274 26.0244V47.9756C274 58.4825 265.033 67 253.971 67H29.0291C17.9673 67 9 58.4825 9 47.9756V26.0244Z" fill="#FFE5CB"/>
<path d="M9 33.1463C9 22.0198 18.6571 13 30.5698 13H252.43C264.343 13 274 22.0198 274 33.1463V51.8537C274 62.9802 264.343 72 252.43 72H30.5698C18.6571 72 9 62.9802 9 51.8537V33.1463Z" fill="#FFC284"/>
</svg>
